<svg width="44" height="44" viewBox="0 0 44 44" fill="none" xmlns="http://www.w3.org/2000/svg">
<g clip-path="url(#clip0_1_351)">
<path d="M30.8099 8.0772C31.0812 7.8083 31.2327 7.44152 31.2303 7.05958L31.1957 1.48854C31.1908 0.707107 30.5558 0.0769043 29.7753 0.0769043C29.7723 0.0769043 29.7693 0.0769043 29.7663 0.0769043C28.9819 0.0817856 28.3498 0.721665 28.3547 1.50619L28.3858 6.47998C25.1858 9.65206 25.4974 9.34334 24.9961 9.84012C21.8783 9.84012 19.6506 9.84012 19.3066 9.84012C19.0187 9.84012 18.7377 9.92756 18.5007 10.091C16.7668 11.2857 13.3836 13.6169 13.3836 13.6169C12.6536 14.1198 12.5575 15.1634 13.1851 15.791L17.7192 20.3252C18.2741 20.8799 19.1733 20.8798 19.7281 20.3252C20.2828 19.7704 20.2828 18.871 19.7281 18.3163L16.4002 14.9885C17.4997 14.2309 17.2652 14.3925 18.3568 13.6404V15.3915L20.5049 17.5397C21.4886 18.5234 21.4886 20.1183 20.5049 21.102C19.9278 21.679 19.1301 21.9261 18.3568 21.813C18.3568 22.3855 18.3568 22.6187 18.3568 23.1931C18.1269 23.9228 16.7163 28.3995 16.5354 28.9737C16.4405 29.275 16.4311 29.5968 16.5084 29.903L18.5018 37.7045H17.8468C17.192 37.7045 16.6613 38.2353 16.6613 38.89C16.6613 39.5447 17.1921 40.0755 17.8468 40.0755H20.731V42.5005C20.731 43.2862 21.368 43.9231 22.1537 43.9231C22.9394 43.9231 23.5763 43.2862 23.5763 42.5005V35.2895H26.4513C27.1061 35.2895 27.6368 34.7587 27.6368 34.104C27.6368 33.5815 27.2984 33.139 26.8292 32.9811L29.8449 27.3522C30.2036 26.6826 30.076 25.8566 29.5321 25.3266L25.8805 21.7678V12.9855L30.8099 8.0772ZM26.2343 26.8726L23.3616 32.3475C23.1106 31.9436 22.6642 31.6737 22.1536 31.6737C21.4644 31.6737 20.8899 32.1639 20.7592 32.8146L19.9321 29.5372L21.7667 23.453H22.7834C22.7834 23.453 22.7136 23.4413 26.2343 26.8726Z" fill="white"/>
<path d="M22.1534 8.55628C23.7793 8.55628 25.0974 7.23824 25.0974 5.61234C25.0974 3.98644 23.7793 2.6684 22.1534 2.6684C20.5275 2.6684 19.2095 3.98644 19.2095 5.61234C19.2095 7.23824 20.5275 8.55628 22.1534 8.55628Z" fill="white"/>
</g>
<defs>
<clipPath id="clip0_1_351">
<rect width="43.8462" height="43.8462" fill="white" transform="translate(0.0769043 0.0769043)"/>
</clipPath>
</defs>
</svg>
