<svg width="44" height="44" viewBox="0 0 44 44" fill="none" xmlns="http://www.w3.org/2000/svg">
<mask id="mask0_1_372" style="mask-type:alpha" maskUnits="userSpaceOnUse" x="0" y="0" width="44" height="44">
<rect x="0.0766602" y="0.0776978" width="43.8462" height="43.8462" fill="#C4C4C4"/>
</mask>
<g mask="url(#mask0_1_372)">
<path d="M9.34869 4.18508C8.81718 4.19618 8.30964 4.40835 7.92834 4.77881C7.54705 5.14927 7.32035 5.65053 7.29394 6.1815C7.2651 6.67673 7.24252 7.17228 7.2262 7.66807C6.84653 7.67085 6.47899 7.80208 6.18342 8.04038C5.88784 8.27868 5.68164 8.61001 5.5984 8.98045C5.51515 9.35088 5.55976 9.73851 5.72497 10.0804C5.89017 10.4222 6.16623 10.6981 6.5082 10.863C6.74245 10.9759 6.97856 11.0849 7.21643 11.1899C7.30195 14.3045 7.63445 17.4074 8.21078 20.4694C8.36432 21.2882 8.83584 22.013 9.52224 22.4852C11.4418 23.8049 13.5209 24.8758 15.7098 25.6724C16.1149 25.8201 16.4647 26.0888 16.7119 26.4421C16.959 26.7954 17.0915 27.2162 17.0913 27.6474V41.8224C17.0913 42.3797 17.3127 42.9143 17.7068 43.3084C18.1009 43.7025 18.6354 43.9239 19.1928 43.9239C19.7501 43.9239 20.2846 43.7025 20.6787 43.3084C21.0728 42.9143 21.2942 42.3797 21.2942 41.8224V25.2327C21.2939 24.9117 21.3671 24.5947 21.5082 24.3064L26.075 15.0173C26.1257 14.9144 26.2087 14.8309 26.3113 14.7795C26.4138 14.7282 26.5304 14.7119 26.6432 14.733C30.2737 15.4048 33.9954 15.4192 37.631 14.7759C38.0702 14.698 38.4604 14.4488 38.7159 14.0832C38.9713 13.7176 39.071 13.2654 38.9931 12.8262C38.9152 12.387 38.666 11.9968 38.3004 11.7414C37.9348 11.4859 37.4826 11.3863 37.0435 11.4642C33.7711 12.0439 30.4207 12.0253 27.1549 11.4095C26.9063 11.3622 26.6832 11.2269 26.5264 11.0282C25.7061 9.98908 24.5437 9.27464 23.2461 9.01205C21.9485 8.74945 20.5998 8.95574 19.4399 9.59418C19.3207 9.65966 19.1898 9.70132 19.0546 9.7169C16.4882 10.0145 13.8885 9.81426 11.398 9.1273C11.4056 8.22579 11.4355 7.32468 11.4876 6.42465V6.42258C11.5066 6.13206 11.465 5.84078 11.3654 5.5672C11.2659 5.29362 11.1105 5.04378 10.9093 4.83339C10.7081 4.62301 10.4653 4.45664 10.1964 4.34503C9.92752 4.23342 9.63837 4.17893 9.3473 4.18496L9.34869 4.18508ZM11.4813 12.6143C13.4689 13.0718 15.5078 13.268 17.5463 13.1981L14.0399 20.3293C13.4316 20.0004 12.8382 19.6446 12.2615 19.2631C11.8659 17.0648 11.6054 14.8444 11.4813 12.6143Z" fill="white"/>
<path d="M32.2648 4.51506C32.2662 3.93294 32.1527 3.3563 31.9309 2.81808C31.7091 2.27987 31.3833 1.79074 30.9722 1.37862C30.5611 0.966505 30.0727 0.639469 29.535 0.416377C28.9973 0.193285 28.4209 0.0784302 27.8388 0.0784302C27.2567 0.0784302 26.6803 0.193285 26.1426 0.416377C25.6049 0.639469 25.1165 0.966505 24.7054 1.37862C24.2943 1.79074 23.9685 2.27987 23.7467 2.81808C23.5249 3.3563 23.4115 3.93294 23.4129 4.51506C23.4115 5.09718 23.5249 5.67393 23.7467 6.21214C23.9685 6.75036 24.2943 7.23949 24.7054 7.65161C25.1165 8.06372 25.6049 8.39065 26.1426 8.61374C26.6803 8.83683 27.2567 8.95168 27.8388 8.95168C28.4209 8.95168 28.9973 8.83683 29.535 8.61374C30.0727 8.39065 30.5611 8.06372 30.9722 7.65161C31.3833 7.23949 31.7091 6.75036 31.9309 6.21214C32.1527 5.67393 32.2662 5.09718 32.2648 4.51506Z" fill="white"/>
</g>
</svg>
