<svg width="44" height="44" viewBox="0 0 44 44" fill="none" xmlns="http://www.w3.org/2000/svg">
<path fill-rule="evenodd" clip-rule="evenodd" d="M24.9202 7.32804C24.302 7.34187 23.9623 7.95759 23.9942 8.51737C23.8629 9.67861 23.8462 10.8648 23.6779 12.0132C22.9591 13.4856 22.2453 14.9722 21.5205 16.4348C20.5892 15.6196 19.1041 15.6069 18.1379 16.37C17.8355 15.1655 17.3943 13.9779 17.1784 12.7628C17.1673 11.3829 17.3686 9.98739 17.2047 8.61528C16.9953 7.76924 15.5749 7.77431 15.4473 8.65684C15.2666 10.2138 15.3051 11.6716 15.5329 13.3578C15.7608 15.044 16.297 16.9026 16.7857 18.675C16.3912 19.8093 16.1973 20.9993 16.2351 22.2441C16.491 23.8534 16.9209 25.8319 16.3286 26.9186C15.8114 27.8674 13.8076 28.5167 11.1631 28.952C8.51853 29.3874 4.69464 29.0946 1.46426 29.2929C0.753944 29.4001 0.176308 30.1313 0.319917 30.8575C0.298476 31.4176 0.808864 31.84 1.23169 32.1C6.45062 32.2097 18.7677 31.4993 21.8912 28.1451C27.539 27.0259 34.2473 26.3612 39.3332 25.6154C39.949 25.5412 40.6565 25.2811 40.7848 24.5923C41.1394 23.6521 40.2216 22.5489 39.2268 22.7983C34.6802 23.3308 30.1958 24.5372 25.6182 24.5141C23.7795 24.5048 21.7535 23.9618 21.688 22.5709C21.6225 21.18 22.0679 19.8372 22.512 18.7162C23.5689 16.6471 24.8125 14.2602 25.3591 12.4519C25.9057 10.6437 25.8893 9.54088 25.8724 8.08514C25.7917 7.64317 25.3744 7.2965 24.9202 7.32804Z" fill="white"/>
<path d="M20.1205 15.2796C21.4674 15.2796 22.5593 14.1887 22.5593 12.8431C22.5593 11.4975 21.4674 10.4067 20.1205 10.4067C18.7735 10.4067 17.6816 11.4975 17.6816 12.8431C17.6816 14.1887 18.7735 15.2796 20.1205 15.2796Z" fill="white"/>
<path fill-rule="evenodd" clip-rule="evenodd" d="M16.8247 7.84219C16.7069 7.78777 16.5961 7.73814 16.5783 7.7319C16.5369 7.71731 16.6358 7.15811 16.7821 6.57917C17.0969 5.33396 17.6841 3.4427 18.2113 1.9764C18.8485 0.204213 18.957 0.0130386 19.2741 0.103334C19.3861 0.135199 19.4154 0.167937 19.4257 0.272654C18.7204 2.97395 18.1349 4.29878 17.2204 7.31399L17.0389 7.94112L16.8247 7.84219Z" fill="white"/>
<path fill-rule="evenodd" clip-rule="evenodd" d="M20.7674 0.577399C20.6275 0.206871 20.6258 0.194163 20.7055 0.135926C20.8058 0.0626307 20.9459 0.0592797 21.0939 0.126637C22.7994 2.88134 23.0411 3.69218 24.6893 7.07223L24.4936 7.16644C24.386 7.21825 24.2454 7.31092 24.1812 7.37238C24.117 7.43383 24.0559 7.48365 24.0453 7.48308C22.9839 5.27031 21.7139 3.04626 20.7674 0.577399Z" fill="white"/>
<path fill-rule="evenodd" clip-rule="evenodd" d="M2.24662 28.7598C6.38614 22.3743 10.8362 15.4387 14.8077 10.1151L15.0803 9.75317V10.5769V11.4007C11.0504 17.4968 7.38704 22.8439 3.55488 28.4003C3.15206 28.9983 3.19565 28.9758 2.43824 28.9758H2.05225L2.24662 28.7598Z" fill="white"/>
<path fill-rule="evenodd" clip-rule="evenodd" d="M26.0239 10.285L26.0735 9.64977C26.1007 9.30039 26.1266 9.01123 26.1309 9.0072C30.478 13.4573 34.453 17.9887 38.5002 22.2805L38.7898 22.5875L38.0044 22.6828C37.5723 22.7352 37.1601 22.7883 37.0882 22.8007C34.0097 19.8142 29.5228 14.1277 26.0239 10.285Z" fill="white"/>
<path fill-rule="evenodd" clip-rule="evenodd" d="M0.315343 34.6175C0.377942 33.5108 0.498899 31.942 0.523521 31.9174C0.746222 32.0558 1.0124 32.2706 1.12432 32.3563C1.23623 32.4421 2.36719 32.3275 2.36719 32.3275C2.39593 36.249 3.00379 40.4681 3.05172 43.9208C2.06012 43.9208 1.06853 43.9208 0.0769268 43.9208C0.0686519 40.7414 0.161461 37.3883 0.315343 34.6175Z" fill="white"/>
<path fill-rule="evenodd" clip-rule="evenodd" d="M40.7113 31.7318C40.5543 28.27 40.409 26.2521 40.2797 25.7377C40.2566 25.646 40.2703 25.6124 40.347 25.5714C40.5153 25.4814 40.8233 25.1729 40.9054 25.0121C41.0545 24.2169 41.5106 25.5391 41.7628 27.0586C42.2536 29.9949 43.1194 36.6392 43.7524 42.3271C43.8459 43.1681 43.9226 43.8707 43.9227 43.8884C43.0612 43.9374 42.4021 43.9207 41.4724 43.9207C41.128 39.6623 40.8793 35.3415 40.7113 31.7318Z" fill="white"/>
</svg>
