<svg width="44" height="44" viewBox="0 0 44 44" fill="none" xmlns="http://www.w3.org/2000/svg">
<mask id="mask0_1_379" style="mask-type:alpha" maskUnits="userSpaceOnUse" x="0" y="0" width="44" height="44">
<rect x="0.0766602" y="0.0776672" width="43.8462" height="43.8462" fill="#C4C4C4"/>
</mask>
<g mask="url(#mask0_1_379)">
<path d="M36.054 10.6208H25.2349H24.2971H19.7166H18.7788H7.95969C7.23958 10.6208 6.65356 11.2068 6.65356 11.9269V12.9065C6.65356 13.6266 7.23958 14.2126 7.95969 14.2126H17.4726V20.5578C17.1779 20.7332 16.9219 20.9727 16.7695 21.2422L13.8886 26.3291C13.7084 26.6469 13.6805 27.0052 13.8124 27.3122C13.9439 27.6191 14.2226 27.846 14.5774 27.9348L16.8096 28.4934L17.467 32.7074C17.5867 33.4749 18.2624 34.2547 19.0056 34.4824L21.9113 35.3714L21.4193 41.646C21.371 42.2656 21.563 42.8703 21.9465 43.3057C22.2774 43.681 22.7228 43.9 23.2013 43.923L23.2849 43.9248C24.3224 43.9248 25.2062 43.017 25.2972 41.8576L25.7151 36.5221C25.8127 36.5413 25.9115 36.5543 26.0121 36.5543C26.6895 36.5543 27.2956 36.1303 27.5206 35.4998L27.6216 35.2169C27.7592 34.8311 27.7379 34.414 27.5607 34.0426C27.3835 33.6713 27.0735 33.3918 26.6873 33.2555L25.9903 33.0099L26.3251 28.7393L29.4402 27.9391C29.7937 27.8486 30.0715 27.62 30.2021 27.3122C30.3327 27.0044 30.3049 26.6461 30.1251 26.3287L27.2442 21.2422C27.0918 20.9727 26.8358 20.7332 26.5406 20.5578V14.2126H36.0536C36.7737 14.2126 37.3597 13.6266 37.3597 12.9065V11.9269C37.3601 11.2068 36.7741 10.6208 36.054 10.6208ZM21.1637 29.5822C21.418 29.6458 21.7502 29.6811 22.0989 29.6811C22.1864 29.6811 22.2731 29.6789 22.358 29.6745L22.2012 31.6738L21.6392 31.4757C21.206 31.3229 20.8032 30.7865 20.7767 30.328L20.7275 29.4734L21.1637 29.5822Z" fill="white"/>
<path d="M22.0068 9.51387C24.6082 9.51387 26.7246 7.39751 26.7246 4.79615C26.7246 2.19479 24.6082 0.0784302 22.0068 0.0784302C19.4055 0.0784302 17.2896 2.19479 17.2896 4.79615C17.2896 7.39751 19.4055 9.51387 22.0068 9.51387Z" fill="white"/>
</g>
</svg>
