<svg width="24" height="22" viewBox="0 0 24 22" fill="none" xmlns="http://www.w3.org/2000/svg">
<path d="M0.702075 17.5999H19.0777C19.2426 17.5999 19.4019 17.5397 19.5282 17.4301C19.7047 17.276 23.7308 13.6639 23.9763 5.86664H4.24117C3.99662 12.9444 0.288763 16.2712 0.25023 16.3044C0.024331 16.5035 -0.0587815 16.8286 0.0428473 17.1179C0.143773 17.4065 0.406798 17.5999 0.702075 17.5999Z" fill="#002F47"/>
<path d="M23.2971 1.46666H19.7813V0.733328C19.7813 0.322664 19.4719 0 19.0782 0C18.6844 0 18.375 0.322664 18.375 0.733328V1.46666H14.8124V0.733328C14.8124 0.322664 14.503 0 14.1093 0C13.7155 0 13.4061 0.322664 13.4061 0.733328V1.46666H9.89034V0.733328C9.89034 0.322664 9.58096 0 9.18719 0C8.79343 0 8.48404 0.322664 8.48404 0.733328V1.46666H4.96829C4.57452 1.46666 4.26514 1.78932 4.26514 2.19998V4.39997H24.0002V2.19998C24.0002 1.78932 23.6909 1.46666 23.2971 1.46666Z" fill="#002F47"/>
<path d="M20.4316 18.5548C20.0498 18.8863 19.5705 19.0668 19.0782 19.0668H4.26514V21.2668C4.26514 21.6721 4.57963 22.0001 4.96829 22.0001H23.2971C23.6857 22.0001 24.0002 21.6721 24.0002 21.2668V13.0464C22.6446 16.5151 20.7528 18.2744 20.4316 18.5548Z" fill="#002F47"/>
</svg>
