<svg width="44" height="44" viewBox="0 0 44 44" fill="none" xmlns="http://www.w3.org/2000/svg">
<mask id="mask0_1_386" style="mask-type:alpha" maskUnits="userSpaceOnUse" x="0" y="0" width="44" height="44">
<rect x="0.0766602" y="0.0776672" width="43.8462" height="43.8462" fill="#C4C4C4"/>
</mask>
<g mask="url(#mask0_1_386)">
<path d="M32.1287 17.229C31.1719 16.3188 29.5829 16.3481 28.6462 17.2698C28.6462 17.2698 23.3621 22.4436 21.2095 24.5955C20.4432 25.3603 14.5576 26.2555 10.4765 23.6446L7.73378 24.6364C7.22749 24.8183 6.95609 24.0613 7.45951 23.878L23.3148 17.9801C24.4362 17.5619 25.0098 16.3131 24.5902 15.1902C24.1749 14.0673 22.9274 13.5009 21.801 13.912C21.801 13.912 8.7349 18.7707 4.37954 20.3906C4.12102 20.4872 3.61187 20.8532 3.56819 20.8854C2.15675 21.9681 1.90396 24.0005 2.99459 25.4069C6.89665 30.4447 11.9903 31.6012 15.848 31.6012C18.9695 31.6012 21.6484 31.2374 23.511 29.3734C25.3572 27.5258 30.4472 22.5453 30.4472 22.5453C30.4472 22.5453 36.5592 28.2083 38.5901 30.1067C39.8211 31.2589 41.3063 30.9152 42.1677 29.9993L43.8234 28.1474L32.1287 17.229Z" fill="white"/>
<circle cx="3.29889" cy="16.4552" r="3.22248" fill="white"/>
</g>
</svg>
