<svg width="27" height="27" viewBox="0 0 27 27" fill="none" xmlns="http://www.w3.org/2000/svg">
<path d="M13.5 0C6.05614 0 0 6.05597 0 13.4999C0 20.9439 6.05614 27 13.5 27C20.9439 27 27 20.9439 27 13.4999C27 6.05597 20.944 0 13.5 0ZM21.2519 11.2197L12.7706 19.701C12.4099 20.0616 11.9306 20.2601 11.4206 20.2601C10.9107 20.2601 10.4313 20.0616 10.0707 19.701L5.74806 15.3784C5.38743 15.0178 5.18881 14.5384 5.18881 14.0285C5.18881 13.5184 5.38743 13.039 5.74806 12.6784C6.10855 12.3178 6.58793 12.1191 7.09802 12.1191C7.60797 12.1191 8.08749 12.3178 8.44798 12.6785L11.4205 15.6509L18.5517 8.51964C18.9124 8.15901 19.3917 7.96053 19.9017 7.96053C20.4116 7.96053 20.891 8.15901 21.2517 8.51964C21.9963 9.26427 21.9963 10.4753 21.2519 11.2197Z" fill="url(#paint0_linear_1_607)"/>
<defs>
<linearGradient id="paint0_linear_1_607" x1="13.4825" y1="27" x2="13.4825" y2="1.60711e-06" gradientUnits="userSpaceOnUse">
<stop stop-color="#022C43"/>
<stop offset="0.609375" stop-color="#0D425C"/>
<stop offset="1" stop-color="#1E6481"/>
</linearGradient>
</defs>
</svg>
