<svg width="44" height="44" viewBox="0 0 44 44" fill="none" xmlns="http://www.w3.org/2000/svg">
<g clip-path="url(#clip0_1_393)">
<path d="M20.7076 10.8552C22.6717 10.8041 24.2225 9.17051 24.1715 7.20639C24.1204 5.24227 22.4868 3.69143 20.5227 3.7425C18.5585 3.79356 17.0077 5.4272 17.0588 7.39132C17.1098 9.35544 18.7435 10.9063 20.7076 10.8552Z" fill="white"/>
<path d="M33.208 15.6674L37.4419 10.2754C38.0273 9.53006 37.897 8.45116 37.152 7.86606C36.4064 7.28028 35.325 7.41416 34.7427 8.15586L34.7427 8.15595C34.2998 8.71996 31.5213 12.2585 31.0769 12.8244L25.9214 12.0411C25.3541 11.955 24.7811 11.9117 24.2073 11.9117H18.9823L13.5247 8.05198L11.6078 1.35918C11.3515 0.464649 10.4378 -0.0979915 9.53477 0.126327C8.58667 0.361704 8.03046 1.33347 8.29712 2.26451L10.3915 9.57704C10.4991 9.95247 10.7315 10.28 11.0503 10.5055L16.0962 14.074C16.0884 14.153 16.0842 14.233 16.0842 14.314V25.8465L13.6577 32.0538C13.5932 32.2189 13.5503 32.3916 13.53 32.5676L12.4853 41.6276C12.355 42.7574 13.1652 43.7789 14.295 43.9091C15.4248 44.0392 16.4461 43.2292 16.5764 42.0993L17.5906 33.3045L20.1957 26.6401H21.1212L25.2119 42.3814C25.4984 43.4838 26.6237 44.1421 27.7227 43.8564C28.8234 43.5704 29.4838 42.4462 29.1978 41.3456L25.1732 25.8589V15.4584L31.7226 16.3183C32.2813 16.3626 32.8224 16.1413 33.208 15.6674Z" fill="white"/>
<path d="M28.4071 7.65931C28.9603 7.65931 29.6589 7.37525 29.5593 6.88753V3.21588L32.3177 2.25046V5.20946C31.7691 5.16541 30.9984 5.39341 30.9984 5.89082C30.9984 6.27106 31.5185 6.57929 32.16 6.57929C32.8015 6.57929 33.3215 6.27106 33.3215 5.89082C33.33 5.89082 33.3477 5.89082 33.3392 5.89082V1.62302C33.3392 1.22598 32.9472 0.947921 32.5724 1.07907L28.9474 2.34783C28.7021 2.43372 28.5379 2.66516 28.5379 2.92505V6.287C28.0004 6.25109 27.2456 6.47986 27.2456 6.97084C27.2457 7.35108 27.7656 7.65931 28.4071 7.65931Z" fill="white"/>
<path d="M39.7173 14.6405L37.2683 15.4977V19.2935C36.731 19.2577 35.9761 19.4864 35.9761 19.9774C35.9761 20.3576 36.4961 20.6659 37.1376 20.6659C37.6907 20.6659 38.3893 20.3819 38.2898 19.8941V16.2224L39.0907 15.9421C39.6231 15.7557 39.9037 15.1729 39.7173 14.6405Z" fill="white"/>
<path d="M6.06596 8.22952L3.61696 9.08668V12.8824C3.07952 12.8469 2.32471 13.0753 2.32471 13.5663C2.32471 13.9465 2.84475 14.2548 3.48625 14.2548C4.03937 14.2548 4.73787 13.9708 4.63844 13.483V9.81133L5.43928 9.53103C5.97167 9.34469 6.2523 8.76199 6.06596 8.22952Z" fill="white"/>
<path d="M37.5633 3.23311C37.8743 3.40257 38.1301 3.65843 38.2996 3.96941C38.3653 4.08984 38.5393 4.08984 38.605 3.96941C38.7744 3.65852 39.0303 3.40266 39.3413 3.23311C39.4617 3.16745 39.4617 2.99345 39.3413 2.92779C39.0303 2.75833 38.7744 2.50247 38.605 2.19149C38.5393 2.07106 38.3653 2.07106 38.2996 2.19149C38.1301 2.50238 37.8743 2.75824 37.5633 2.92779C37.4429 2.99336 37.4429 3.16737 37.5633 3.23311Z" fill="white"/>
<path d="M2.56151 8.05205C2.73097 7.74116 2.98683 7.4853 3.29781 7.31575C3.41824 7.25009 3.41824 7.07609 3.29781 7.01043C2.98683 6.84097 2.73097 6.58511 2.56151 6.27413C2.49585 6.1537 2.32185 6.1537 2.25619 6.27413C2.08673 6.58502 1.83087 6.84088 1.51989 7.01043C1.39946 7.07609 1.39946 7.25009 1.51989 7.31575C1.83087 7.48521 2.08673 7.74107 2.25619 8.05205C2.32185 8.17257 2.49585 8.17257 2.56151 8.05205Z" fill="white"/>
<path d="M41.3656 6.97435C41.1221 6.84167 40.9218 6.64126 40.789 6.39774C40.7375 6.30345 40.6013 6.30345 40.5499 6.39774C40.4172 6.64126 40.2168 6.84167 39.9733 6.97435C39.879 7.02578 39.879 7.16207 39.9733 7.2135C40.2168 7.34628 40.4172 7.54659 40.5499 7.79011C40.6013 7.8844 40.7376 7.8844 40.789 7.79011C40.9218 7.54659 41.1221 7.34628 41.3656 7.2135C41.4599 7.16207 41.4599 7.02578 41.3656 6.97435Z" fill="white"/>
<path d="M7.1483 4.87664C6.90478 4.74395 6.70438 4.54354 6.57169 4.30002C6.52026 4.20574 6.38397 4.20574 6.33263 4.30002C6.19986 4.54354 5.99954 4.74395 5.75602 4.87664C5.66173 4.92807 5.66173 5.06436 5.75602 5.11578C5.99954 5.24856 6.19986 5.44888 6.33263 5.6924C6.38406 5.78668 6.52035 5.78668 6.57169 5.6924C6.70447 5.44888 6.90478 5.24856 7.1483 5.11578C7.24259 5.06427 7.24259 4.92798 7.1483 4.87664Z" fill="white"/>
<path d="M42.52 3.64472C42.3465 3.55017 42.2038 3.40745 42.1093 3.23396C42.0727 3.16676 41.9755 3.16676 41.9389 3.23396C41.8444 3.40737 41.7017 3.55017 41.5282 3.64472C41.461 3.68132 41.461 3.77843 41.5282 3.81503C41.7017 3.90958 41.8444 4.0523 41.9389 4.22578C41.9755 4.29299 42.0727 4.29299 42.1093 4.22578C42.2038 4.05238 42.3465 3.90958 42.52 3.81503C42.5871 3.77843 42.5871 3.6814 42.52 3.64472Z" fill="white"/>
<path d="M2.50529 3.71579C2.67878 3.81034 2.8215 3.95305 2.91604 4.12654C2.95265 4.19374 3.04976 4.19374 3.08636 4.12654C3.18091 3.95314 3.32362 3.81034 3.49711 3.71579C3.56431 3.67919 3.56431 3.58207 3.49711 3.54547C3.32362 3.45093 3.18091 3.30821 3.08636 3.13472C3.04976 3.06752 2.95265 3.06752 2.91604 3.13472C2.8215 3.30812 2.67878 3.45093 2.50529 3.54547C2.43818 3.58207 2.43818 3.6791 2.50529 3.71579Z" fill="white"/>
</g>
<defs>
<clipPath id="clip0_1_393">
<rect width="43.8462" height="43.8462" fill="white" transform="translate(0.0769043 0.0769348)"/>
</clipPath>
</defs>
</svg>
