<svg width="44" height="44" viewBox="0 0 44 44" fill="none" xmlns="http://www.w3.org/2000/svg">
<mask id="mask0_1_496" style="mask-type:alpha" maskUnits="userSpaceOnUse" x="0" y="0" width="44" height="44">
<rect x="0.0766602" y="0.0776672" width="43.8462" height="43.8462" fill="#C4C4C4"/>
</mask>
<g mask="url(#mask0_1_496)">
<path d="M24.4907 3.0918C24.4907 4.75628 23.0858 6.10548 21.3529 6.10548C19.6197 6.10548 18.2148 4.75628 18.2148 3.0918C18.2148 1.42763 19.6197 0.0784302 21.3529 0.0784302C23.0858 0.0784302 24.4907 1.42763 24.4907 3.0918Z" fill="white"/>
<path d="M13.2995 33.2763C11.2599 33.2763 9.63867 34.8333 9.63867 36.792C9.63867 38.7507 11.2599 40.3077 13.2995 40.3077C15.339 40.3077 16.9603 38.7507 16.9603 36.792C16.9603 34.8834 15.3394 33.2763 13.2995 33.2763Z" fill="white"/>
<path d="M37.4604 39.9565L34.7409 29.359L34.061 14.1913L36.5191 5.30178C36.676 4.7995 36.3622 4.24712 35.787 4.14655C35.2639 3.99583 34.6888 4.29726 34.584 4.84967L33.5906 8.51605C33.2767 8.41547 32.9106 8.41547 32.5446 8.51605L31.2372 8.9682L31.4985 5.15112C31.5507 4.5987 31.1324 4.14659 30.5572 4.14659C29.982 4.09645 29.5112 4.49815 29.5112 5.05055L29.1974 9.62121L28.2039 9.97277L23.654 7.9135C23.288 7.2605 22.608 6.80863 21.8237 6.80863L18.6859 6.60778C17.483 6.55764 16.4373 7.46161 16.3847 8.61693L15.9664 16.8034C15.9142 16.9541 15.8617 17.1048 15.8617 17.3056L15.1818 26.7472L13.1944 29.5096C9.89973 29.6102 6.86638 31.7697 6.02949 35.1347C4.98349 39.6549 8.53981 43.9241 13.351 43.9241L25.0129 43.874H35.7864C38.0354 43.874 38.8723 41.2623 37.4602 39.9563L37.4604 39.9565ZM31.0276 12.1822L32.7536 11.5796L32.0736 13.9905L32.335 19.9169L30.8707 14.2916L31.0276 12.1822ZM13.299 41.4126C10.6317 41.4126 8.48746 39.3533 8.48746 36.7918C8.48746 34.2303 10.6317 32.171 13.299 32.171C15.9662 32.171 18.1105 34.2303 18.1105 36.7918C18.1105 39.3533 15.9662 41.4126 13.299 41.4126ZM24.386 33.8286L16.7506 30.3129L18.2671 28.2536C18.424 28.0027 18.5284 27.7012 18.581 27.3998L18.8948 22.7289L20.9869 22.8295H21.4052L24.4908 25.9434L24.386 33.8286ZM27.7329 35.3354C27.7851 35.1847 27.7851 35.0844 27.7851 34.9337L27.942 25.2403C27.942 24.7882 27.7851 24.3865 27.4712 24.0851L23.3396 19.9666L23.8104 11.2272L27.4712 12.8848C27.6804 12.9854 27.8895 13.0355 28.1512 13.0355C28.3081 13.0355 28.5173 12.9854 28.6742 12.9349L28.9881 12.8343L28.8833 14.3913L32.7532 29.559L33.1197 37.7463L27.7329 35.3354Z" fill="white"/>
</g>
</svg>
