<svg width="30" height="16" viewBox="0 0 30 16" fill="none" xmlns="http://www.w3.org/2000/svg">
<path d="M29.776 7.41377C29.5083 7.11506 23.0673 0.0898438 15 0.0898438C6.93272 0.0898438 0.491865 7.11506 0.224033 7.41377C-0.0746777 7.74764 -0.0746777 8.25236 0.224033 8.58623C0.491865 8.88494 6.93284 15.9102 15 15.9102C23.0672 15.9102 29.5082 8.88494 29.776 8.58623C30.0747 8.25236 30.0747 7.74764 29.776 7.41377ZM15 14.1523C11.608 14.1523 8.84769 11.3921 8.84769 8C8.84769 4.60795 11.608 1.84766 15 1.84766C18.3921 1.84766 21.1524 4.60795 21.1524 8C21.1524 11.3921 18.3921 14.1523 15 14.1523Z" fill="#979797"/>
</svg>
