<svg width="44" height="44" viewBox="0 0 44 44" fill="none" xmlns="http://www.w3.org/2000/svg">
<path d="M42.7229 15.3209C37.815 18.3186 32.2038 19.8951 26.461 19.8951C26.3103 19.8951 26.1595 19.8933 26.0087 19.8911C25.8272 20.3152 19.4367 26.8836 19.4367 26.8836C22.3501 30.8605 23.7592 35.7541 23.509 41.0513C23.5058 41.119 23.4981 41.1853 23.4896 41.2513H41.1961C41.9272 41.2513 42.5612 41.8436 42.5612 42.5742V42.6009C42.5612 43.3315 41.9272 43.9238 41.1961 43.9238H3.90836C3.17724 43.9238 2.61245 43.3315 2.61245 42.6009V42.5742C2.61245 41.8436 3.17724 41.2513 3.90836 41.2513H18.5196C18.5014 41.1086 18.4928 40.9633 18.4999 40.8148C18.6988 36.6064 17.5837 32.758 15.2747 29.6854L14.6781 28.8883C14.6664 28.8726 14.6549 28.8569 14.6435 28.8411L13.0008 26.5358C12.837 26.306 12.659 26.0815 12.4726 25.8697L12.2869 25.6582C9.56788 22.567 6.02197 20.3939 2.03227 19.3739L1.96574 19.3569C0.623866 19.0155 -0.186977 17.6515 0.154844 16.3107C0.496665 14.9698 1.86111 14.1592 3.20332 14.5011L3.27252 14.5186C7.62209 15.6307 11.5466 17.8409 14.7288 20.9537C14.7288 20.9537 20.4301 15.2938 20.7351 15.1251C20.2703 10.9895 18.1565 7.15346 14.8309 4.55793C13.7398 3.70623 13.5459 2.13178 14.3983 1.04105C15.2506 -0.0495116 16.8259 -0.243103 17.9177 0.608766C22.3931 4.10176 25.2056 9.29583 25.7483 14.8756L25.9892 14.8799C30.9719 14.9678 35.8543 13.6432 40.1075 11.0452C41.2894 10.3238 42.8323 10.6959 43.5544 11.8763C44.2767 13.0569 43.9043 14.5991 42.7229 15.3209ZM13.5636 31.8854C14.1419 29.4095 12.6023 26.9337 10.1245 26.3558C7.64683 25.7778 5.16933 27.3165 4.591 29.7925C4.01266 32.2684 5.55244 34.7442 8.0301 35.3221C10.5078 35.9 12.9851 34.3613 13.5636 31.8854Z" fill="white"/>
</svg>
