<svg width="44" height="44" viewBox="0 0 44 44" fill="none" xmlns="http://www.w3.org/2000/svg">
<mask id="mask0_1_418" style="mask-type:alpha" maskUnits="userSpaceOnUse" x="0" y="0" width="44" height="44">
<rect x="0.0766602" y="0.0776672" width="43.8462" height="43.8462" fill="#C4C4C4"/>
</mask>
<g mask="url(#mask0_1_418)">
<path d="M4.42178 10.8981L4.22363 12.7556L8.97792 18.4042L9.80325 12.3117C9.84178 12.0273 9.9223 11.7608 9.9989 11.4929L4.42178 10.8981Z" fill="white"/>
<path d="M8.46554 22.1806L8.71458 20.3423L4.00995 14.7518L3.31425 21.2749C3.14155 22.8923 4.31282 24.3426 5.93029 24.5156L8.74163 24.8154C8.46135 23.9917 8.34088 23.1016 8.46554 22.1806Z" fill="white"/>
<path d="M18.2399 11.1259C17.8326 9.99633 16.5855 9.40856 15.4553 9.81856C14.325 10.2265 13.7393 11.4729 14.148 12.6031L16.7874 19.9137C17.0268 20.5787 17.5749 21.0857 18.2569 21.2727L25.0986 23.1536C25.2912 23.2067 25.4853 23.2323 25.6765 23.2323C26.6311 23.2323 27.5071 22.5984 27.7727 21.6325C28.0914 20.4739 27.4101 19.2771 26.2515 18.9584L20.4968 17.3764L18.2399 11.1259Z" fill="white"/>
<path d="M25.4027 34.8804L24.5082 28.71C24.4048 27.9975 24.004 27.363 23.4055 26.9628L19.779 24.5415L18.5051 23.6909C18.5106 23.6538 18.5175 23.6068 18.5262 23.5466L18.617 22.8754L17.8717 22.6705C16.7358 22.3582 15.8223 21.5133 15.4222 20.4058L14.5933 18.1097L10.1399 20.6317C10.1399 20.6317 9.9625 21.9415 9.90342 22.378C9.85341 22.7466 9.84354 23.9597 10.0068 24.4834C10.2648 25.3114 11.0396 27.7954 11.0396 27.7954L12.4267 32.2436L10.4869 39.6193C10.1299 40.9754 10.9402 42.3635 12.2956 42.7197C12.5123 42.7763 12.7297 42.8039 12.9429 42.8039C14.0682 42.8039 15.0964 42.0497 15.396 40.911L17.5213 32.8299C17.6424 32.3689 17.6318 31.8831 17.4894 31.4284L16.5788 28.5084L19.6465 30.5566L20.3787 35.6081C20.5622 36.8722 21.647 37.7829 22.8878 37.7822C23.0089 37.7822 23.1314 37.7737 23.2546 37.756C24.6421 37.5552 25.6038 36.2677 25.4027 34.8804Z" fill="white"/>
<path d="M41.7008 19.0011C41.0606 18.5188 40.1506 18.6476 39.6698 19.2872L34.2259 26.5206C34.1183 26.6643 34.0376 26.8258 33.9887 26.9986L31.7474 34.9252L28.3078 35.4167C28.1293 35.4423 27.9572 35.5003 27.8 35.5895L17.843 41.2118C17.1454 41.6055 16.8997 42.4901 17.2934 43.1876C17.5597 43.66 18.0512 43.9249 18.5576 43.9249C18.799 43.9249 19.0441 43.8646 19.2692 43.7372L28.9883 38.2495L33.0914 37.6632C33.6587 37.5825 34.1254 37.1745 34.2819 36.6222L36.7067 28.0489L41.987 21.0323C42.4693 20.3919 42.3404 19.4827 41.7008 19.0011Z" fill="white"/>
<path d="M5.01722 10.1366L10.2943 10.6998L10.9631 10.7712C11.2915 10.8063 11.6174 10.7739 11.9332 10.7012C11.5829 11.2308 11.3313 11.8357 11.2408 12.507L10.3847 18.8261L14.0939 16.7254L12.7831 13.0948C12.4321 12.1224 12.5291 11.1017 12.9576 10.2446C13.0126 10.2061 13.0727 10.177 13.1252 10.1346C13.4925 9.83785 13.7672 9.45473 13.9551 9.03094C14.078 8.75378 14.171 8.46239 14.2037 8.15516C14.2289 7.91955 14.2179 7.68973 14.1888 7.46453C14.0181 6.1445 12.9694 5.06221 11.5878 4.9146L5.63969 4.28003C4.86347 4.19711 4.08663 4.42586 3.47902 4.91585C2.87213 5.40672 2.48393 6.11763 2.40118 6.89598C2.22839 8.51355 3.39975 9.96393 5.01722 10.1366Z" fill="white"/>
<path d="M18.2842 8.53103C20.6183 8.53103 22.5104 6.63885 22.5104 4.30472C22.5104 1.9706 20.6183 0.0784149 18.2842 0.0784149C15.95 0.0784149 14.0579 1.9706 14.0579 4.30472C14.0579 6.63885 15.95 8.53103 18.2842 8.53103Z" fill="white"/>
</g>
</svg>
