<svg width="44" height="44" viewBox="0 0 44 44" fill="none" xmlns="http://www.w3.org/2000/svg">
<mask id="mask0_1_412" style="mask-type:alpha" maskUnits="userSpaceOnUse" x="0" y="0" width="44" height="44">
<rect x="0.0766602" y="0.0776672" width="43.8462" height="43.8462" fill="#C4C4C4"/>
</mask>
<g mask="url(#mask0_1_412)">
<path d="M39.0579 14.7429C39.0579 15.9638 38.0434 16.9536 36.7921 16.9536H29.3903C28.9449 16.9536 28.5091 16.8255 28.1379 16.5852L23.3759 13.5033L19.7039 18.28H24.3772C24.7291 18.28 25.0759 18.3599 25.3905 18.5135L34.0255 22.726C35.1448 23.2719 35.5984 24.5999 35.0388 25.6919C34.4791 26.7837 33.1181 27.227 31.9989 26.6805L23.8424 22.7015H19.0802L21.6702 25.2541C22.2425 25.8182 22.461 26.6385 22.2425 27.403C22.0241 28.1676 21.4022 28.7593 20.6134 28.9533L12.0437 31.0595C11.858 31.1052 11.6718 31.127 11.4886 31.127C10.4748 31.127 9.55187 30.4585 9.29295 29.4557C8.98737 28.2718 9.72331 27.0702 10.9367 26.7719L15.6565 25.6118L12.0387 22.0461C11.8511 21.8611 11.7034 21.649 11.595 21.4213C10.8337 20.2866 10.8346 18.7643 11.7168 17.6168L17.0814 10.6382L14.4358 9.77776L7.67499 11.9765C6.4877 12.3622 5.20463 11.7368 4.80886 10.5783C4.41324 9.42006 5.05478 8.16806 6.24193 7.78192L13.7192 5.35012C14.1841 5.19905 14.6872 5.19905 15.1521 5.35012L22.6294 7.78192C23.7303 8.1881 30.0733 12.532 30.0733 12.532H36.7919C38.0434 12.5322 39.0579 13.522 39.0579 14.7429ZM26.6336 7.37382C28.6984 7.37382 30.3722 5.74068 30.3722 3.72612C30.3722 1.71156 28.6984 0.0784302 26.6336 0.0784302C24.5688 0.0784302 22.8949 1.71156 22.8949 3.72612C22.8949 5.74068 24.5688 7.37382 26.6336 7.37382ZM26.4756 26.9064C25.9253 27.0672 25.5636 27.5825 25.5636 28.143V40.0496C25.5636 40.806 24.9854 41.4191 24.2102 41.4191H19.5342C18.9599 41.4191 18.4318 41.7721 18.267 42.3088C18.0182 43.119 18.648 43.9246 19.4583 43.9246H25.6893H25.6642C27.0408 43.9246 28.1316 42.8359 28.1316 41.4928V41.4191V28.0688C28.1316 27.278 27.3059 26.6637 26.4756 26.9064Z" fill="white"/>
</g>
</svg>
