<svg width="24" height="24" viewBox="0 0 24 24" fill="none" xmlns="http://www.w3.org/2000/svg">
<path d="M12 0C5.36 0 0 5.36 0 12C0 18.64 5.36 24 12 24C18.64 24 24 18.64 24 12C24 5.36 18.64 0 12 0ZM13.3333 17.5733C13.3333 18.2933 12.72 18.88 12 18.88C11.28 18.88 10.6667 18.2933 10.6667 17.5733V10.7467C10.6667 10.0267 11.28 9.44 12 9.44C12.72 9.44 13.3333 10.0267 13.3333 10.7467V17.5733ZM12.0267 7.73333C11.3067 7.73333 10.72 7.14667 10.72 6.42667C10.72 5.70667 11.3067 5.12 12.0267 5.12C12.7467 5.12 13.3333 5.70667 13.3333 6.42667C13.3333 7.14667 12.7467 7.73333 12.0267 7.73333Z" fill="#9C9C9C"/>
</svg>
