<svg width="147" height="40" viewBox="0 0 147 40" fill="none" xmlns="http://www.w3.org/2000/svg">
<path fill-rule="evenodd" clip-rule="evenodd" d="M30.9309 31.175C30.8892 30.8228 30.0988 29.255 29.9324 28.846C28.1433 24.9946 26.4375 21.0636 24.6486 17.2122C23.8997 15.6216 23.3588 13.6106 21.3202 13.6106C19.3231 13.6106 18.8654 15.4852 18.1582 16.9736L14.0809 26.0057C13.8313 26.5169 12.1671 30.357 11.9591 30.5274C11.9175 30.2434 11.5846 29.6867 11.4598 29.3913C11.2934 29.005 11.0854 28.6414 10.9606 28.2665C10.3365 26.8123 9.54602 25.1763 8.88031 23.7448C8.79711 23.563 8.75551 23.3586 8.6723 23.1654C8.5475 22.9723 8.50589 22.8132 8.38102 22.6087C8.21461 22.211 8.0482 21.8702 7.88179 21.4953C7.67378 21.1204 7.54898 20.7455 7.38257 20.3478L5.80155 16.9736C5.05264 15.3148 4.67822 13.6106 2.51477 13.6106C1.14183 13.6106 0.184915 14.8376 0.0185057 16.1783C-0.147903 17.2917 0.850551 18.9732 1.30824 19.9388L8.46429 35.7535C9.29634 37.5258 9.87884 39.889 11.9591 39.889C13.9145 39.889 14.4969 38.1735 15.1626 36.5715C15.6203 35.3445 16.7436 33.2541 17.2013 32.0611C17.4925 31.2886 17.9085 30.5728 18.2414 29.8117L19.7808 26.4147C19.9472 26.017 20.1136 25.6762 20.2801 25.3013C20.4465 24.9264 20.6129 24.5514 20.7793 24.1538C20.9457 23.8584 21.2369 23.2676 21.3202 22.9723C21.5282 23.1313 21.7362 23.7562 21.861 24.0516L27.02 35.39C27.436 36.2534 28.1017 38.0825 28.601 38.7756C29.6827 40.3434 31.9709 40.1958 32.9695 38.5484L34.3009 36.2307C34.5089 35.8331 34.7169 35.4808 34.9665 35.0832C35.1745 34.6742 35.3826 34.3107 35.6322 33.9244C36.0898 33.1405 36.5059 32.3907 36.9636 31.6067L42.289 22.4156C42.7883 21.6543 43.1627 20.9045 43.6203 20.1433L46.9487 14.3832C47.1984 13.9742 47.4064 13.6106 47.656 13.2244L52.3157 5.18072C52.6902 4.49905 52.7734 4.12411 52.7734 3.2834C52.7734 1.99962 51.4837 0.704407 50.2771 0.704407C49.3202 0.704407 48.5713 1.0907 48.0304 1.79508C47.4896 2.55631 43.3707 9.92969 42.3722 11.5771L40.6664 14.5196C40.4583 14.8376 40.2503 15.1672 40.0839 15.5193L37.5461 19.8934C36.2562 22.211 34.8417 24.4264 33.552 26.7328C33.4688 26.9373 33.3856 27.0736 33.2608 27.2554L31.5549 30.198C31.4301 30.4138 31.0973 31.0614 30.9309 31.175Z" fill="#002F47"/>
<path fill-rule="evenodd" clip-rule="evenodd" d="M99.1628 27.1077C99.1628 25.6648 99.246 24.7105 99.8701 23.404C100.286 22.5064 100.702 21.9497 101.326 21.2794C103.615 18.78 107.442 18.53 110.188 20.5069C113.017 22.5405 114.057 26.8123 112.601 29.9025C112.393 30.3797 112.268 30.6637 111.977 31.0954C111.852 31.2658 111.727 31.459 111.603 31.6067C110.979 32.3451 111.103 32.2543 110.271 32.936C109.148 33.8221 107.817 34.2084 106.319 34.3334C105.612 34.3902 104.114 34.0266 103.448 33.7312C102.699 33.3904 102.2 33.0155 101.617 32.4815C101.326 32.2429 101.201 32.152 100.91 31.7885C100.785 31.5726 100.661 31.4704 100.536 31.2545C100.286 30.891 100.078 30.5274 99.8701 30.0957C99.5373 29.3686 99.1628 28.1643 99.1628 27.1077ZM93.8374 3.35152V37.3668C93.8374 39.0482 96.0009 41.0365 98.1643 39.3322C98.7052 38.9119 98.9548 38.3098 99.0796 37.6281C99.5789 37.7644 102.99 40.9796 108.857 39.6845C109.689 39.5027 110.438 39.2186 111.187 38.8778C111.936 38.5029 112.476 38.1848 113.142 37.7076C115.097 36.3215 116.346 34.5947 117.386 32.4247C118.925 29.0845 118.967 24.4606 117.386 21.1203C116.678 19.5866 116.47 19.3139 115.597 18.1438C113.683 15.5989 110.146 13.4856 106.152 13.4856C104.363 13.4856 102.782 13.9061 101.368 14.5423C100.328 15.0081 99.7869 15.4739 99.0796 15.8715C99.0796 12.8835 99.0796 9.89555 99.0796 6.90756C99.0796 5.80553 99.246 3.36294 98.9548 2.59036C98.2891 0.556709 95.9593 0.124999 94.6695 1.49969C94.2951 1.88598 93.8374 2.60172 93.8374 3.35152Z" fill="#002F47"/>
<path fill-rule="evenodd" clip-rule="evenodd" d="M127.288 26.7211C127.288 21.0292 133.279 16.9165 138.396 20.5179C143.098 23.8467 142.39 32.3676 135.942 34.1172C134.402 34.5375 132.696 34.2422 131.49 33.6401C128.91 32.3676 127.288 29.7773 127.288 26.7211ZM122.004 26.7211C122.004 30.2204 123.044 32.6857 124.875 35.1965C124.999 35.4124 125.083 35.4578 125.249 35.6396C125.79 36.3667 126.539 37.0484 127.288 37.5824C128.161 38.2526 128.328 38.2981 129.285 38.8094C129.826 39.1275 130.824 39.4796 131.531 39.6501C133.279 40.0818 134.693 40.0932 136.482 39.7978C139.145 39.3661 141.225 37.7073 141.517 37.6278C141.558 38.8208 142.765 40.0705 144.346 39.9568C145.636 39.8659 146.634 38.7412 146.759 37.2756V36.9802V16.5188V16.2462C146.592 13.5422 143.722 12.781 142.39 14.2125C141.974 14.6442 141.517 15.1896 141.517 15.8712L140.06 14.9737C138.646 14.0762 136.108 13.4854 134.361 13.4854C127.579 13.4854 122.004 19.4613 122.004 26.7211Z" fill="#002F47"/>
<path fill-rule="evenodd" clip-rule="evenodd" d="M51.359 26.7782C51.359 25.5626 51.6502 24.5742 51.983 23.688C52.1495 23.3131 52.3575 22.8246 52.6071 22.4837C52.94 21.9724 53.4393 21.4157 53.8553 20.984C54.937 19.9047 56.8508 19.1663 58.4318 19.1663C59.5551 19.1663 60.4704 19.4616 61.3025 19.8252C61.7186 19.9956 62.0515 20.2342 62.4259 20.4955C65.2966 22.5519 66.3784 26.71 64.7973 30.107C63.7988 32.1634 62.1763 33.5381 60.096 34.1061L58.4734 34.3334C57.1421 34.3675 55.6027 33.7994 54.4793 33.0041C52.6071 31.6748 51.359 29.2436 51.359 26.7782ZM46.0752 26.7214C46.0752 28.6755 46.5744 30.8341 47.1569 32.1407L47.6561 33.22C47.8642 33.5949 48.0306 33.8903 48.2802 34.2425C48.4051 34.4357 48.4467 34.5606 48.5715 34.7424L49.6532 36.0944C53.2728 39.9572 58.8063 41.0705 63.466 38.8551C64.2149 38.5029 64.7973 38.1166 65.463 37.6622C65.7959 37.4236 66.0455 37.2078 66.3367 36.9464C66.5448 36.776 66.5864 36.7192 66.7528 36.5488C67.1688 36.0944 66.8776 36.4806 67.5017 35.7422C67.6265 35.5718 67.7513 35.4808 67.8761 35.3104C68.1257 34.9923 68.3337 34.6969 68.5834 34.3561C70.7469 30.9818 71.4957 26.5169 70.206 22.5633C69.8731 21.5635 69.7067 21.1658 69.249 20.2796C69.1658 20.0865 69.041 19.9388 68.9578 19.757C68.0841 18.1779 66.9608 16.9849 65.5462 15.917C65.3798 15.7693 65.2966 15.7011 65.0885 15.5762C64.1733 14.9853 63.5908 14.6218 62.5091 14.2242C54.3545 11.2475 46.0752 17.7461 46.0752 26.7214Z" fill="#002F47"/>
<path fill-rule="evenodd" clip-rule="evenodd" d="M74.0752 3.68088V36.9804C74.0752 38.6504 75.2401 39.9456 76.4883 39.9456C77.4452 39.9456 77.9444 39.8774 78.6517 39.0936C79.0262 38.6732 79.4006 37.9915 79.4006 37.1735V3.54454C79.4006 2.98785 79.1926 2.37431 78.943 1.96531L78.6517 1.56767C78.5685 1.44276 78.4437 1.37456 78.3189 1.27229C78.1525 1.1246 78.1109 1.11324 77.9028 1.01098C76.1555 0.0566385 74.0752 1.41998 74.0752 3.68088Z" fill="#002F47"/>
<path fill-rule="evenodd" clip-rule="evenodd" d="M84.1016 11.0999V37.4918C84.1016 39.0937 86.4314 41.1159 88.5117 39.2186C88.9278 38.8551 89.3438 37.9917 89.3438 37.3668V11.1681C89.3438 9.11169 86.7227 7.55517 84.9337 9.27074C84.5177 9.65703 84.1016 10.4522 84.1016 11.0999Z" fill="#002F47"/>
<path fill-rule="evenodd" clip-rule="evenodd" d="M8.00684 14.6445C8.00684 15.4852 8.04844 15.9283 8.38126 16.6668C9.62945 19.3366 12.9162 19.9047 14.7468 17.8938C17.1599 15.2694 15.8701 11.3612 12.8746 10.5772C11.5432 10.2364 10.1287 10.7136 9.21337 11.6906C8.88055 12.0655 8.58933 12.4178 8.38126 12.929C8.17325 13.4062 8.00684 13.9742 8.00684 14.6445Z" fill="#69C2FF"/>
<path fill-rule="evenodd" clip-rule="evenodd" d="M27.644 14.5194C27.644 15.9736 27.8937 16.837 28.8506 17.8595C30.806 19.95 34.0512 19.2456 35.2162 16.7121C36.4227 14.1671 35.1329 10.8156 31.7213 10.4634C30.8476 10.3726 29.5163 10.9747 28.9338 11.6336C28.2265 12.3607 27.644 13.3606 27.644 14.5194Z" fill="#69C2FF"/>
<path fill-rule="evenodd" clip-rule="evenodd" d="M83.8105 2.96528C83.8105 4.8626 85.0171 6.26001 86.7645 6.26001C88.2623 6.26001 89.6352 4.85117 89.6352 3.22659C89.6352 2.62441 89.5936 2.34039 89.344 1.7837C88.928 0.874782 87.971 0 86.9725 0C86.0156 0 85.3083 0.113625 84.6011 0.931629C84.185 1.38605 83.8105 2.10179 83.8105 2.96528Z" fill="#002F47"/>
</svg>
