<svg width="44" height="44" viewBox="0 0 44 44" fill="none" xmlns="http://www.w3.org/2000/svg">
<path d="M11.033 31.3591C11.2601 32.0284 11.8179 32.486 12.461 32.6256L12.4626 32.641H12.5261C12.6377 32.6612 12.7516 32.6743 12.8671 32.6743C12.9802 32.6743 13.0949 32.662 13.2096 32.641H17.8213C18.6767 32.641 19.4236 31.9485 19.4887 31.0945L20.0838 23.2859L24.6049 16.6864L26.8844 14.5566L34.4443 22.4366C34.9014 22.912 35.5104 23.1517 36.121 23.1517C36.7006 23.1517 37.2801 22.9361 37.7311 22.5025C38.6569 21.6129 38.6864 20.1401 37.7977 19.2124L37.0042 18.3857C37.3831 17.5449 37.2421 16.5243 36.5649 15.8177L27.4181 6.28263C26.538 5.36669 25.0836 5.32556 24.1553 6.19341L18.4976 11.4798C18.2365 11.7234 18.0521 12.015 17.9289 12.3267L11.9923 22.1511L10.6371 18.1662C10.476 17.6908 10.1358 17.296 9.68878 17.0664L2.89905 13.5747C1.94836 13.0853 0.779955 13.4607 0.290957 14.4131C-0.197959 15.3655 0.177034 16.5343 1.12853 17.0237L7.22167 20.1578L11.033 31.3591Z" fill="white"/>
<path d="M15.4645 42.9383C18.0162 42.9383 20.0847 40.8677 20.0847 38.3135C20.0847 35.7593 18.0162 33.6887 15.4645 33.6887C12.9128 33.6887 10.8442 35.7593 10.8442 38.3135C10.8442 40.8677 12.9128 42.9383 15.4645 42.9383Z" fill="white"/>
<path d="M41.4696 0.0784302C41.0411 0.0784302 40.6948 0.425894 40.6948 0.853978V43.1484C40.6948 43.5773 41.0411 43.924 41.4696 43.924H43.1479C43.5764 43.924 43.9227 43.5773 43.9227 43.1484V0.854059C43.9227 0.425975 43.5764 0.0785113 43.1479 0.0785113H41.4696V0.0784302Z" fill="white"/>
<path d="M31.7136 2.55893C32.1281 2.67062 32.5511 2.42243 32.6612 2.00902C32.7719 1.59562 32.5255 1.17062 32.1125 1.06047C31.9599 1.02008 16.7324 -2.90121 10.1805 7.91745C9.9589 8.28429 10.0759 8.76056 10.4417 8.9823C10.5672 9.05903 10.7059 9.09472 10.8431 9.09472C11.1049 9.09472 11.3607 8.96211 11.5071 8.72089C17.4515 -1.09803 31.5718 2.5217 31.7136 2.55893Z" fill="white"/>
<path d="M19.1649 6.32379C19.581 6.2276 19.8421 5.81192 19.7469 5.39463C19.6516 4.97733 19.237 4.71438 18.8217 4.81057C18.7403 4.82842 10.7078 6.73947 11.7104 14.334C11.7615 14.7242 12.0947 15.008 12.4774 15.008C12.5108 15.008 12.5457 15.0057 12.5797 15.0011C13.0044 14.9453 13.3026 14.555 13.2461 14.1309C12.4301 7.94942 18.889 6.38665 19.1649 6.32379Z" fill="white"/>
</svg>
