<svg width="44" height="44" viewBox="0 0 44 44" fill="none" xmlns="http://www.w3.org/2000/svg">
<mask id="mask0_1_440" style="mask-type:alpha" maskUnits="userSpaceOnUse" x="0" y="0" width="44" height="44">
<rect x="0.0766602" y="0.0776672" width="43.8462" height="43.8462" fill="#C4C4C4"/>
</mask>
<g mask="url(#mask0_1_440)">
<path d="M4.45804 14.684C2.04163 14.684 0.0759277 16.6497 0.0759277 19.0661C0.0759277 21.4826 2.04163 23.4483 4.45804 23.4483C6.87445 23.4483 8.84016 21.4826 8.84016 19.0661C8.84016 16.6497 6.87445 14.684 4.45804 14.684Z" fill="white"/>
<path d="M28.7309 22.8661C25.6679 22.8661 23.1066 25.0533 22.5253 27.9476C22.4919 28.2294 22.4733 28.5156 22.4733 28.8063C22.4733 30.9314 23.3859 32.8465 24.8391 34.1823C25.9135 35.0229 27.2642 35.5256 28.731 35.5256C32.2212 35.5256 35.0607 32.6861 35.0607 29.1959C35.0607 25.7057 32.2211 22.8661 28.7309 22.8661Z" fill="white"/>
<path d="M38.2042 10.8412L35.9485 17.6079H14.6831C13.3623 17.6079 12.1701 18.5389 11.8488 19.8204L8.92742 31.5055C8.53752 33.0694 9.48988 34.659 11.0528 35.0494C12.6101 35.4419 14.2028 34.4946 14.5962 32.924L16.9651 23.4411L21.4936 23.4414C23.19 21.3124 25.8038 19.9451 28.7313 19.9451C31.6593 19.9451 34.2736 21.3127 35.9699 23.4423L38.0547 23.4424C39.2947 23.4424 40.4341 22.6306 40.8263 21.4537L43.7477 12.689C44.9706 9.03145 39.4274 7.16706 38.2042 10.8412Z" fill="white"/>
</g>
</svg>
