<svg width="44" height="44" viewBox="0 0 44 44" fill="none" xmlns="http://www.w3.org/2000/svg">
<g clip-path="url(#clip0_1_454)">
<path d="M37.8285 22.2182C36.9761 19.9395 34.413 13.1031 34.413 13.1031C33.8501 11.6028 32.1788 10.8417 30.6779 11.4044L28.2445 12.3163L24.3784 13.0078L20.3643 9.15532C20.0433 8.84461 19.6169 8.73167 19.2045 8.77578L15.2188 0.607167C15.0454 0.246824 14.6119 0.0961152 14.2467 0.272358C13.8856 0.448602 13.7351 0.88421 13.9114 1.24518L18.0161 9.65682C17.7975 10.1927 17.9056 10.8294 18.349 11.2545L19.1874 12.0583L24.5091 22.9665L23.2183 27.0607L21.3878 25.8078C20.7481 25.3701 20.3132 24.6928 20.1824 23.9296L18.7696 15.7325C18.7171 15.4248 18.6133 15.1285 18.4653 14.8548L15.7194 9.78065L13.2831 0.923494C13.145 0.42387 12.6905 0.0769196 12.1714 0.0769196H7.106C6.47049 0.0769196 5.95435 0.592971 5.95435 1.22902V42.5891C5.95435 43.2252 6.47049 43.741 7.10591 43.741H31.2261C31.6385 43.741 32.0223 43.5193 32.2268 43.1597C32.4315 42.8008 32.4287 42.3588 32.2182 42.0028L28.0793 34.9969C27.9883 34.8433 27.9129 34.6814 27.852 34.5144L26.2388 30.0527C26.7008 29.7891 27.0704 29.3633 27.2438 28.8167L27.289 28.669L34.5324 43.5143C34.6572 43.7731 34.9159 43.9229 35.186 43.9229C35.2927 43.9229 35.4021 43.8995 35.5045 43.8491C35.8655 43.6728 36.0161 43.2372 35.8399 42.8762L32.2014 35.4189C32.2296 35.4204 32.2567 35.4332 32.2867 35.4332C32.4515 35.4332 32.622 35.4141 32.7897 35.3742C33.9638 35.0972 34.6902 33.921 34.413 32.7476L33.1878 27.5632L37.0993 25.1995C37.867 24.7347 38.3482 23.6074 37.8285 22.2182ZM22.2317 14.9813L22.8971 15.621C23.1699 15.8839 23.5338 16.0267 23.9063 16.0267C23.9916 16.0267 24.0768 16.0189 24.1621 16.0039L28.9608 15.1446L30.7927 20.0336L27.6901 19.3932C26.5927 19.1672 25.5039 19.8076 25.1672 20.8757L25.1429 20.9502L22.2317 14.9813ZM27.9258 26.6521L28.7389 24.0681L30.0735 24.3438L29.569 24.6494C28.756 25.1397 28.3551 26.0971 28.5727 27.0194L29.0117 28.8822L27.9258 26.6521Z" fill="white"/>
<path d="M28.8823 10.9631C30.6861 10.9631 32.1487 9.50066 32.1487 7.69617C32.1487 5.89241 30.6861 4.42996 28.8823 4.42996C27.0789 4.42996 25.6147 5.89241 25.6147 7.69617C25.6148 9.50066 27.0789 10.9631 28.8823 10.9631Z" fill="white"/>
</g>
<defs>
<clipPath id="clip0_1_454">
<rect width="43.8462" height="43.8462" fill="white" transform="translate(0.0769043 0.0769196)"/>
</clipPath>
</defs>
</svg>
