<svg width="44" height="44" viewBox="0 0 44 44" fill="none" xmlns="http://www.w3.org/2000/svg">
<g clip-path="url(#clip0_1_484)">
<path d="M13.6009 9.92109H27.1295C27.485 9.92109 27.773 9.63292 27.773 9.27743C27.773 8.92194 27.485 8.63377 27.1295 8.63377H13.6009C13.2454 8.63377 12.9573 8.92194 12.9573 9.27743C12.9573 9.63292 13.2454 9.92109 13.6009 9.92109Z" fill="white"/>
<path d="M1.50181 16.2145H15.0303C15.3858 16.2145 15.6739 15.9264 15.6739 15.5709C15.6739 15.2154 15.3858 14.9273 15.0303 14.9273H1.50181C1.14632 14.9273 0.858154 15.2154 0.858154 15.5709C0.858154 15.9264 1.14632 16.2145 1.50181 16.2145Z" fill="white"/>
<path d="M5.13354 22.8368C5.13354 23.1923 5.42171 23.4805 5.7772 23.4805H19.3057C19.6611 23.4805 19.9493 23.1923 19.9493 22.8368C19.9493 22.4813 19.6611 22.1932 19.3057 22.1932H5.7772C5.42171 22.1932 5.13354 22.4813 5.13354 22.8368Z" fill="white"/>
<path d="M12.876 30.3174H0.72056C0.365071 30.3174 0.0769043 30.6055 0.0769043 30.961C0.0769043 31.3165 0.365071 31.6046 0.72056 31.6046H12.876C13.2314 31.6046 13.5196 31.3165 13.5196 30.961C13.5196 30.6055 13.2314 30.3174 12.876 30.3174Z" fill="white"/>
<path d="M34.7476 13.9566C36.6891 13.9566 38.263 12.3825 38.263 10.4409C38.263 8.49936 36.689 6.92532 34.7476 6.92532C32.8057 6.92532 31.2314 8.49945 31.2314 10.4409C31.2314 12.3825 32.8056 13.9566 34.7476 13.9566Z" fill="white"/>
<path d="M40.5303 12.9443C38.5116 15.772 35.8085 16.0994 32.8997 14.3726C32.7016 14.2552 31.8231 13.7712 31.6286 13.6556C26.9492 10.8776 22.2752 11.967 19.1407 16.3566C17.8088 18.2236 20.8894 19.9932 22.2065 18.148C23.826 15.88 25.8853 15.2238 28.1375 15.9421C26.9843 17.9438 25.9761 19.9334 24.5534 22.7601C23.1304 25.5867 19.9885 27.8441 16.9696 26.0786C14.7913 24.8054 12.8269 27.9348 14.9986 29.204C19.1202 31.6128 23.9527 30.1337 26.4198 27.0025C26.5053 27.0482 26.5958 27.0895 26.695 27.1242C28.7104 27.8264 31.3522 29.6958 32.1572 30.3583C32.9619 31.0208 34.3446 34.396 35.1657 36.0918C36.1618 38.1495 39.3786 36.6508 38.3789 34.5844C37.4481 32.6603 35.8859 28.8202 34.6673 27.8487C33.6898 27.0695 31.7921 25.6193 30.1826 24.7966C31.2715 22.6874 32.4053 20.6009 33.5989 18.5505C37.4034 19.7162 41.0197 18.343 43.5953 14.7353C44.9283 12.8686 41.8484 11.0989 40.5303 12.9443Z" fill="white"/>
</g>
<defs>
<clipPath id="clip0_1_484">
<rect width="43.8462" height="43.8462" fill="white" transform="translate(0.0769043 0.0769196)"/>
</clipPath>
</defs>
</svg>
