<svg width="375" height="231" viewBox="0 0 375 231" fill="none" xmlns="http://www.w3.org/2000/svg">
<g clip-path="url(#clip0_1_754)">
<path d="M43.9614 1.43738C36.1489 -2.99326 25.5819 -1.21182 20.3597 5.41651C15.1372 12.0448 13.6086 25.6151 21.4212 30.0459C29.2335 34.4768 37.8365 24.3308 46.1829 20.6678C57.8236 15.5589 51.7738 5.86843 43.9614 1.43758V1.43738Z" fill="#E1E2FD" fill-opacity="0.09"/>
<path d="M353.708 204.318C358.475 196.117 359.671 185.942 358.678 176.315C357.691 166.748 354.982 156.709 351.197 148.009C347.61 139.762 342.417 132.406 340.938 123.22C338.983 111.084 344.103 99.4198 345.292 87.5152C347.658 63.8164 332.853 42.9354 314.486 31.6595C299.569 22.5012 282.08 19.0651 264.929 19.3096C249.493 19.5295 234.084 22.4921 219.125 26.4754C204.711 30.314 190.617 35.3724 175.507 33.7765C162.941 32.4494 151.623 26.8031 139.92 22.5932C111.98 12.542 78.1348 11.1241 52.5855 26.4257C36.1886 36.2458 24.7121 52.1939 19.622 69.3406C15.8935 81.8997 14.7874 96.3405 17.5198 109.051C20.5897 123.333 26.2615 135.913 24.7643 150.957C23.5353 163.303 20.7738 175.384 19.7134 187.861C18.6864 199.948 24.3871 219.701 46.9926 218.093C47.6319 218.047 53.0484 219.209 53.4967 219.701H335.131C341.551 215.958 349.828 210.994 353.708 204.318L353.708 204.318Z" fill="#E1E2FD" fill-opacity="0.07"/>
<path d="M326.173 199.463C327.361 191.62 324.58 184.335 324.945 176.712C325.646 162.054 341.518 151.934 347.048 138.758C354.052 122.073 353.715 103.376 345.21 87.1168C341.112 79.2809 335.124 71.9988 326.947 66.9625C314.341 59.1989 297.824 57.4962 282.291 58.4808C259.173 59.9464 234.779 68.1041 211.535 65.8795C198.709 64.6519 194.792 53.3359 188.168 45.8716C180.676 37.429 170.473 30.798 159.192 26.3842C138.416 18.2544 113.481 17.485 92.246 24.8567C69.5753 32.7268 49.8152 51.9465 51.1141 73.682C51.7152 83.7376 56.6533 93.7248 54.3671 103.605C51.498 116.004 40.0361 127.304 31.7302 137.406C22.5574 148.564 17.0042 161.87 15.9152 175.444C14.6805 190.835 23.3628 206.518 32.8037 219.7H318.203C322.406 213.492 325.098 206.562 326.173 199.463V199.463Z" fill="#E1E2FD" fill-opacity="0.1"/>
</g>
<path d="M301.295 201.197H211.333C210.392 201.197 209.627 200.434 209.627 199.496V152.797C209.627 151.859 210.392 151.096 211.333 151.096H301.295C302.235 151.096 303.001 151.859 303.001 152.797V199.496C303.001 200.434 302.235 201.197 301.295 201.197ZM211.333 152.351C211.086 152.351 210.885 152.551 210.885 152.797V199.496C210.885 199.742 211.086 199.943 211.333 199.943H301.295C301.542 199.943 301.742 199.742 301.742 199.496V152.797C301.742 152.551 301.542 152.351 301.295 152.351H211.333Z" fill="white"/>
<path d="M301.295 201.197H211.333C210.392 201.197 209.627 200.434 209.627 199.496V152.797C209.627 151.859 210.392 151.096 211.333 151.096H301.295C302.235 151.096 303.001 151.859 303.001 152.797V199.496C303.001 200.434 302.235 201.197 301.295 201.197ZM211.333 152.351C211.086 152.351 210.885 152.551 210.885 152.797V199.496C210.885 199.742 211.086 199.943 211.333 199.943H301.295C301.542 199.943 301.742 199.742 301.742 199.496V152.797C301.742 152.551 301.542 152.351 301.295 152.351H211.333Z" fill="white"/>
<path d="M291.947 162.319H269.169C268.74 162.319 268.393 162.665 268.393 163.093V170.355C268.393 170.783 268.74 171.13 269.169 171.13H291.947C292.376 171.13 292.724 170.783 292.724 170.355V163.093C292.724 162.665 292.376 162.319 291.947 162.319Z" fill="white"/>
<path d="M291.947 178.232H269.169C268.74 178.232 268.393 178.579 268.393 179.007V186.269C268.393 186.697 268.74 187.044 269.169 187.044H291.947C292.376 187.044 292.724 186.697 292.724 186.269V179.007C292.724 178.579 292.376 178.232 291.947 178.232Z" fill="white"/>
<path d="M262.373 189.923H222.43C222.082 189.923 221.801 189.642 221.801 189.296C221.801 188.949 222.082 188.668 222.43 188.668H262.373C262.721 188.668 263.002 188.949 263.002 189.296C263.002 189.642 262.721 189.923 262.373 189.923Z" fill="white"/>
<path d="M262.373 175.308H222.43C222.082 175.308 221.801 175.027 221.801 174.681C221.801 174.334 222.082 174.053 222.43 174.053H262.373C262.721 174.053 263.002 174.334 263.002 174.681C263.002 175.027 262.721 175.308 262.373 175.308Z" fill="white"/>
<path d="M262.373 182.616H240.838C240.49 182.616 240.209 182.336 240.209 181.989C240.209 181.642 240.49 181.362 240.838 181.362H262.373C262.721 181.362 263.002 181.642 263.002 181.989C263.002 182.336 262.721 182.616 262.373 182.616Z" fill="white"/>
<path d="M262.373 167.559H240.838C240.49 167.559 240.209 167.278 240.209 166.932C240.209 166.585 240.49 166.304 240.838 166.304H262.373C262.721 166.304 263.002 166.585 263.002 166.932C263.002 167.278 262.721 167.559 262.373 167.559Z" fill="white"/>
<path d="M262.373 160.584H247.85C247.502 160.584 247.221 160.303 247.221 159.957C247.221 159.61 247.502 159.329 247.85 159.329H262.373C262.72 159.329 263.002 159.61 263.002 159.957C263.002 160.303 262.72 160.584 262.373 160.584Z" fill="white"/>
<path d="M148.668 150.34H58.7055C57.7651 150.34 57 149.577 57 148.639V101.94C57 101.002 57.7651 100.239 58.7055 100.239H148.668C149.608 100.239 150.373 101.002 150.373 101.94V148.639C150.373 149.577 149.608 150.34 148.668 150.34ZM58.7055 101.494C58.4588 101.494 58.2578 101.694 58.2578 101.94V148.639C58.2578 148.885 58.4588 149.085 58.7055 149.085H148.668C148.914 149.085 149.115 148.885 149.115 148.639V101.94C149.115 101.694 148.914 101.494 148.668 101.494H58.7055Z" fill="white"/>
<path d="M148.668 150.34H58.7055C57.7651 150.34 57 149.577 57 148.639V101.94C57 101.002 57.7651 100.239 58.7055 100.239H148.668C149.608 100.239 150.373 101.002 150.373 101.94V148.639C150.373 149.577 149.608 150.34 148.668 150.34ZM58.7055 101.494C58.4588 101.494 58.2578 101.694 58.2578 101.94V148.639C58.2578 148.885 58.4588 149.085 58.7055 149.085H148.668C148.914 149.085 149.115 148.885 149.115 148.639V101.94C149.115 101.694 148.914 101.494 148.668 101.494H58.7055Z" fill="white"/>
<path d="M68.052 139.119H90.8297C91.2586 139.119 91.6063 138.772 91.6063 138.344V131.082C91.6063 130.654 91.2586 130.307 90.8297 130.307H68.052C67.6229 130.307 67.2754 130.654 67.2754 131.082V138.344C67.2754 138.772 67.6229 139.119 68.052 139.119Z" fill="white"/>
<path d="M68.052 123.207H90.8297C91.2586 123.207 91.6063 122.86 91.6063 122.432V115.17C91.6063 114.743 91.2586 114.396 90.8297 114.396H68.052C67.6229 114.396 67.2754 114.743 67.2754 115.17V122.432C67.2754 122.86 67.6229 123.207 68.052 123.207Z" fill="white"/>
<path d="M137.57 112.769H97.6271C97.2797 112.769 96.998 112.488 96.998 112.142C96.998 111.795 97.2797 111.515 97.6271 111.515H137.57C137.918 111.515 138.199 111.795 138.199 112.142C138.199 112.488 137.918 112.769 137.57 112.769Z" fill="white"/>
<path d="M137.57 127.384H97.6271C97.2797 127.384 96.998 127.103 96.998 126.757C96.998 126.41 97.2797 126.129 97.6271 126.129H137.57C137.918 126.129 138.199 126.41 138.199 126.757C138.199 127.103 137.918 127.384 137.57 127.384Z" fill="white"/>
<path d="M119.162 120.078H97.6271C97.2797 120.078 96.998 119.797 96.998 119.45C96.998 119.104 97.2797 118.823 97.6271 118.823H119.162C119.509 118.823 119.791 119.104 119.791 119.45C119.791 119.797 119.509 120.078 119.162 120.078Z" fill="white"/>
<path d="M119.162 135.135H97.6271C97.2797 135.135 96.998 134.854 96.998 134.508C96.998 134.161 97.2797 133.881 97.6271 133.881H119.162C119.509 133.881 119.791 134.161 119.791 134.508C119.791 134.854 119.509 135.135 119.162 135.135Z" fill="white"/>
<path d="M112.15 142.108H97.6271C97.2797 142.108 96.998 141.828 96.998 141.481C96.998 141.134 97.2797 140.853 97.6271 140.853H112.15C112.498 140.853 112.779 141.134 112.779 141.481C112.779 141.828 112.498 142.108 112.15 142.108Z" fill="white"/>
<path d="M278.343 136.738C278.283 136.738 278.223 136.725 278.166 136.7C278.007 136.631 277.903 136.473 277.903 136.299V132.691H270.281C269.288 132.691 268.48 131.885 268.48 130.895V120.493C268.48 119.502 269.288 118.696 270.281 118.696H287.959C288.952 118.696 289.76 119.502 289.76 120.493V130.895C289.76 131.885 288.952 132.691 287.959 132.691H282.949L278.639 136.623C278.557 136.698 278.451 136.737 278.343 136.737L278.343 136.738ZM278.215 136.159C278.214 136.16 278.214 136.16 278.214 136.16L278.215 136.159ZM270.281 119.324C269.635 119.324 269.109 119.848 269.109 120.493V130.895C269.109 131.539 269.635 132.064 270.281 132.064H278.093C278.335 132.064 278.532 132.261 278.532 132.502V135.87L282.579 132.179C282.658 132.106 282.764 132.064 282.875 132.064H287.959C288.605 132.064 289.131 131.539 289.131 130.895V120.493C289.131 119.848 288.605 119.324 287.959 119.324H270.281ZM283.006 132.64L283.003 132.642C283.004 132.641 283.005 132.641 283.006 132.64Z" fill="white"/>
<path d="M274.305 127.651C273.47 127.651 272.791 126.974 272.791 126.141C272.791 125.309 273.47 124.632 274.305 124.632C275.14 124.632 275.819 125.309 275.819 126.141C275.819 126.974 275.14 127.651 274.305 127.651ZM274.305 125.259C273.817 125.259 273.42 125.655 273.42 126.141C273.42 126.628 273.817 127.024 274.305 127.024C274.793 127.024 275.19 126.628 275.19 126.141C275.19 125.655 274.793 125.259 274.305 125.259Z" fill="white"/>
<path d="M278.967 127.651C278.132 127.651 277.453 126.974 277.453 126.141C277.453 125.309 278.132 124.632 278.967 124.632C279.802 124.632 280.481 125.309 280.481 126.141C280.481 126.974 279.802 127.651 278.967 127.651ZM278.967 125.259C278.479 125.259 278.082 125.655 278.082 126.141C278.082 126.628 278.479 127.024 278.967 127.024C279.455 127.024 279.852 126.628 279.852 126.141C279.852 125.655 279.455 125.259 278.967 125.259Z" fill="white"/>
<path d="M283.629 127.651C282.794 127.651 282.115 126.974 282.115 126.141C282.115 125.309 282.794 124.632 283.629 124.632C284.464 124.632 285.143 125.309 285.143 126.141C285.143 126.974 284.464 127.651 283.629 127.651ZM283.629 125.259C283.141 125.259 282.744 125.655 282.744 126.141C282.744 126.628 283.141 127.024 283.629 127.024C284.117 127.024 284.514 126.628 284.514 126.141C284.514 125.655 284.117 125.259 283.629 125.259Z" fill="white"/>
<path d="M79.9703 203.015C79.8616 203.015 79.7544 202.974 79.6712 202.899L75.292 198.904H70.1999C69.1937 198.904 68.375 198.087 68.375 197.083V186.514C68.375 185.511 69.1937 184.694 70.1999 184.694H88.1613C89.1675 184.694 89.9864 185.511 89.9864 186.514V197.083C89.9864 198.087 89.1675 198.904 88.1613 198.904H80.4115V202.575C80.4115 202.749 80.308 202.908 80.1472 202.978C80.0905 203.003 80.0303 203.015 79.9703 203.015V203.015ZM80.0957 202.435L80.0966 202.436C80.0962 202.436 80.0961 202.435 80.0957 202.435ZM70.1999 185.321C69.5406 185.321 69.0038 185.856 69.0038 186.514V197.083C69.0038 197.741 69.5406 198.276 70.1999 198.276H75.365C75.4762 198.276 75.5823 198.318 75.6639 198.392L79.7825 202.149V198.716C79.7825 198.474 79.9806 198.276 80.2242 198.276H88.1613C88.8209 198.276 89.3574 197.741 89.3574 197.083V186.514C89.3574 185.856 88.8209 185.321 88.1613 185.321H70.1999ZM75.2384 198.855C75.2388 198.855 75.239 198.855 75.2393 198.855L75.2384 198.855Z" fill="white"/>
<path d="M84.072 193.783C83.2269 193.783 82.5391 193.097 82.5391 192.254C82.5391 191.411 83.2269 190.725 84.072 190.725C84.9176 190.725 85.6052 191.411 85.6052 192.254C85.6052 193.097 84.9174 193.783 84.072 193.783ZM84.072 191.352C83.5735 191.352 83.1681 191.756 83.1681 192.254C83.1681 192.751 83.5735 193.156 84.072 193.156C84.5706 193.156 84.9762 192.751 84.9762 192.254C84.9762 191.756 84.5706 191.352 84.072 191.352Z" fill="white"/>
<path d="M79.3337 193.783C78.4886 193.783 77.8008 193.097 77.8008 192.254C77.8008 191.411 78.4886 190.725 79.3337 190.725C80.1793 190.725 80.8669 191.411 80.8669 192.254C80.8669 193.097 80.1791 193.783 79.3337 193.783ZM79.3337 191.352C78.8351 191.352 78.4298 191.756 78.4298 192.254C78.4298 192.751 78.8351 193.156 79.3337 193.156C79.8323 193.156 80.2379 192.751 80.2379 192.254C80.2379 191.756 79.8323 191.352 79.3337 191.352Z" fill="white"/>
<path d="M74.5977 193.783C73.7521 193.783 73.0645 193.097 73.0645 192.254C73.0645 191.411 73.7523 190.725 74.5977 190.725C75.443 190.725 76.1306 191.411 76.1306 192.254C76.1306 193.097 75.443 193.783 74.5977 193.783ZM74.5977 191.352C74.0991 191.352 73.6935 191.756 73.6935 192.254C73.6935 192.751 74.0991 193.156 74.5977 193.156C75.0963 193.156 75.5016 192.751 75.5016 192.254C75.5016 191.756 75.0963 191.352 74.5977 191.352Z" fill="white"/>
<path d="M267.387 139.687C266.403 139.687 265.602 138.888 265.602 137.906C265.602 136.925 266.403 136.125 267.387 136.125C268.371 136.125 269.172 136.924 269.172 137.906C269.172 138.888 268.371 139.687 267.387 139.687ZM267.387 136.753C266.749 136.753 266.231 137.27 266.231 137.906C266.231 138.542 266.749 139.06 267.387 139.06C268.024 139.06 268.543 138.542 268.543 137.906C268.543 137.27 268.024 136.753 267.387 136.753Z" fill="white"/>
<path d="M280.323 102.798C277.185 102.798 274.631 100.251 274.631 97.121C274.631 93.9907 277.185 91.4442 280.323 91.4442C283.461 91.4442 286.015 93.9907 286.015 97.121C286.015 100.251 283.461 102.798 280.323 102.798ZM280.323 92.0716C277.531 92.0716 275.26 94.3368 275.26 97.121C275.26 99.9055 277.531 102.17 280.323 102.17C283.115 102.17 285.386 99.9054 285.386 97.121C285.386 94.3367 283.115 92.0716 280.323 92.0716Z" fill="white"/>
<path d="M78.1157 164.887C77.1313 164.887 76.3301 164.088 76.3301 163.107C76.3301 162.124 77.1311 161.326 78.1157 161.326C79.0998 161.326 79.9007 162.124 79.9007 163.107C79.9007 164.088 79.1 164.887 78.1157 164.887ZM78.1157 161.953C77.478 161.953 76.9591 162.47 76.9591 163.107C76.9591 163.743 77.478 164.26 78.1157 164.26C78.753 164.26 79.2717 163.743 79.2717 163.107C79.2717 162.47 78.753 161.953 78.1157 161.953Z" fill="white"/>
<path d="M109.076 215.866C108.092 215.866 107.291 215.067 107.291 214.085C107.291 213.104 108.092 212.305 109.076 212.305C110.061 212.305 110.862 213.104 110.862 214.085C110.862 215.067 110.061 215.866 109.076 215.866ZM109.076 212.932C108.439 212.932 107.92 213.45 107.92 214.086C107.92 214.722 108.439 215.239 109.076 215.239C109.714 215.239 110.233 214.722 110.233 214.086C110.233 213.45 109.714 212.932 109.076 212.932Z" fill="white"/>
<path d="M114.09 72.9151C114.09 78.6457 109.432 83.2914 103.687 83.2914C97.941 83.2914 93.2832 78.6459 93.2832 72.9151C93.2832 67.1845 97.9409 62.539 103.687 62.539C109.432 62.539 114.09 67.1844 114.09 72.9151Z" fill="white"/>
<path d="M105.47 71.8875C106.087 71.3764 106.481 70.6056 106.481 69.7432C106.481 68.2043 105.23 66.9568 103.687 66.9568C102.144 66.9568 100.893 68.2043 100.893 69.7432C100.893 70.6058 101.286 71.3766 101.903 71.8875C99.922 72.6133 98.5059 74.5064 98.5059 76.7343C98.5059 79.5883 108.868 79.5883 108.868 76.7343C108.868 74.5062 107.452 72.6133 105.471 71.8875H105.47Z" fill="white"/>
<path d="M231.927 106.843C231.927 112.074 227.675 116.316 222.429 116.316C217.184 116.316 212.932 112.075 212.932 106.843C212.932 101.611 217.184 97.3698 222.429 97.3698C227.675 97.3698 231.927 101.611 231.927 106.843Z" fill="white"/>
<path d="M224.058 105.903C224.621 105.437 224.98 104.733 224.98 103.945C224.98 102.54 223.838 101.401 222.43 101.401C221.021 101.401 219.879 102.54 219.879 103.945C219.879 104.733 220.238 105.437 220.801 105.903C218.992 106.566 217.699 108.294 217.699 110.328C217.699 112.933 227.16 112.933 227.16 110.328C227.16 108.294 225.867 106.566 224.058 105.903Z" fill="white"/>
<path d="M216.031 94.0347C215.641 86.3594 211.496 79.7982 205.485 75.9817C204.334 75.2511 203.992 73.7635 204.677 72.5875C206.59 69.3055 207.584 65.4029 207.311 61.2859C206.818 53.8338 202.311 47.6643 196.133 44.8803C198.108 44.3014 199.354 43.8591 199.354 43.8591C199.354 43.8591 194.809 19.6996 170.794 21.4525C153.47 22.717 146.038 31.1786 143.015 39.7475C142.837 40.2523 142.487 40.6818 142.008 40.9234C138.036 42.9285 135.505 46.9491 135.36 51.3289C135.326 52.3605 134.668 53.2531 133.698 53.6129C122.281 57.8462 115.793 70.1499 119.067 82.0935L119.071 82.1074C119.294 82.9183 119.033 83.7921 118.384 84.3289C109.096 92.0097 103.694 104.08 105.205 117.095C107.408 136.07 124.061 150.369 143.201 149.738C157.309 149.273 169.192 141.072 175.083 129.462C178.628 122.472 185.746 118.051 193.599 117.925C193.711 117.923 193.823 117.92 193.935 117.917C206.992 117.517 216.692 107.047 216.031 94.0349L216.031 94.0347Z" fill="#3D469A"/>
<path d="M221.091 189.47L221.095 189.469C221.093 189.467 221.091 189.466 221.09 189.464L221.091 189.47Z" fill="#EF91C6"/>
<path d="M260.895 88.383L260.667 88.3323C259.516 88.0768 258.364 88.8069 258.109 89.9549L258.495 88.2217C258.799 86.8587 257.93 85.4952 256.564 85.1918C255.197 84.8884 253.83 85.7553 253.526 87.1183L253.988 85.047C254.292 83.684 253.423 82.3204 252.057 82.017C250.69 81.7136 249.323 82.5806 249.019 83.9436L248.747 85.1594C249.051 83.7964 248.182 82.433 246.816 82.1296C245.449 81.8262 244.082 82.693 243.778 84.0562L239.847 101.67C239.291 101.166 238.909 100.48 238.808 99.7026C238.568 97.8574 237.933 95.4824 236.259 95.2437C232.837 94.7558 230.65 100.442 231.284 110.264C231.926 120.199 234.036 120.534 234.036 120.534L225.877 147.566L225.743 148.01L218.639 132.795L201.531 143.975L217.527 183.071C217.852 184.283 218.331 185.452 218.95 186.55L218.972 186.602L218.98 186.601C219.563 187.625 220.266 188.588 221.089 189.463C221.091 189.465 221.093 189.467 221.094 189.468C221.563 189.966 222.065 190.439 222.608 190.876C228.803 195.869 236.465 192.939 241.458 187.774C247.545 181.477 248.32 173.9 249.191 165.575C249.907 158.729 252.253 136.315 252.709 131.953L253.482 125.241C253.482 125.241 260.06 119.108 259.05 106.491L262.522 90.9346C262.778 89.7866 262.046 88.6383 260.895 88.3828L260.895 88.383Z" fill="#F9D8EB"/>
<path d="M225.744 148.011L223.744 143.728L217.438 175.592L217.442 175.61C217.479 175.458 217.509 175.306 217.551 175.155L225.744 148.011Z" fill="#EF91C6"/>
<path d="M246.457 95.7307C246.435 95.7307 246.412 95.7283 246.389 95.7234C246.219 95.6857 246.112 95.5183 246.15 95.3488L248.464 84.9808C248.501 84.8118 248.67 84.7049 248.839 84.7422C249.009 84.78 249.116 84.9474 249.078 85.1169L246.764 95.4851C246.732 95.6314 246.602 95.7307 246.457 95.7307H246.457Z" fill="#F6A8B3"/>
<path d="M251.291 97.4466C251.269 97.4466 251.246 97.4441 251.223 97.4393C251.053 97.4016 250.947 97.2338 250.984 97.0646L253.298 86.6965C253.336 86.5276 253.503 86.4227 253.673 86.4581C253.843 86.4958 253.95 86.6633 253.912 86.8328L251.598 97.2009C251.566 97.3473 251.435 97.4466 251.291 97.4466Z" fill="#F6A8B3"/>
<path d="M255.903 100.152C255.88 100.152 255.857 100.15 255.834 100.145C255.665 100.107 255.558 99.9397 255.595 99.7702L257.909 89.4022C257.947 89.2338 258.115 89.1267 258.285 89.1639C258.454 89.2016 258.561 89.369 258.524 89.5384L256.21 99.9065C256.177 100.053 256.047 100.152 255.902 100.152H255.903Z" fill="#F6A8B3"/>
<path d="M243.271 111.784C243.239 111.784 243.206 111.779 243.174 111.768C243.009 111.714 242.919 111.538 242.972 111.373C245.183 104.618 239.591 101.893 239.352 101.781C239.195 101.707 239.128 101.52 239.202 101.363C239.275 101.206 239.462 101.139 239.62 101.213C239.683 101.243 245.955 104.278 243.571 111.567C243.527 111.7 243.404 111.784 243.271 111.784Z" fill="#F6A8B3"/>
<path d="M195.374 119.662C195.322 119.437 195.271 119.217 195.219 118.996C195.27 119.217 195.322 119.437 195.374 119.662Z" fill="#F9D8EB"/>
<path d="M195.085 118.42C195.031 118.187 194.978 117.959 194.926 117.729C194.978 117.959 195.031 118.187 195.085 118.42Z" fill="#F9D8EB"/>
<path d="M194.805 117.209C194.751 116.972 194.699 116.741 194.646 116.508C194.699 116.741 194.751 116.972 194.805 117.209Z" fill="#F9D8EB"/>
<path d="M194.538 116.031C194.489 115.813 194.442 115.601 194.395 115.386C194.442 115.601 194.489 115.813 194.538 116.031Z" fill="#F9D8EB"/>
<path d="M195.679 120.948C195.626 120.724 195.574 120.504 195.521 120.283C195.574 120.504 195.626 120.724 195.679 120.948Z" fill="#F9D8EB"/>
<path d="M194.282 114.885C194.237 114.677 194.193 114.474 194.148 114.27C194.193 114.475 194.237 114.677 194.282 114.885Z" fill="#F9D8EB"/>
<path d="M196.993 126.345C196.929 126.086 196.866 125.83 196.803 125.573C196.866 125.83 196.929 126.086 196.993 126.345Z" fill="#F9D8EB"/>
<path d="M197.342 127.744C197.277 127.484 197.213 127.226 197.148 126.968C197.213 127.226 197.277 127.484 197.342 127.744Z" fill="#F9D8EB"/>
<path d="M196.649 124.957C196.593 124.725 196.537 124.496 196.48 124.266C196.537 124.496 196.593 124.725 196.649 124.957Z" fill="#F9D8EB"/>
<path d="M196.314 123.58C196.257 123.348 196.202 123.119 196.146 122.889C196.202 123.119 196.257 123.348 196.314 123.58Z" fill="#F9D8EB"/>
<path d="M195.994 122.265C195.933 122.013 195.874 121.765 195.814 121.516C195.874 121.765 195.933 122.013 195.994 122.265Z" fill="#F9D8EB"/>
<path d="M193.608 111.721C193.573 111.551 193.541 111.388 193.508 111.222C193.541 111.388 193.573 111.551 193.608 111.721Z" fill="#F9D8EB"/>
<path d="M192.722 106.76C192.703 106.623 192.688 106.498 192.672 106.37C192.688 106.498 192.703 106.623 192.722 106.76Z" fill="#F9D8EB"/>
<path d="M192.824 107.448C192.803 107.316 192.786 107.193 192.768 107.067C192.786 107.193 192.803 107.316 192.824 107.448Z" fill="#F9D8EB"/>
<path d="M192.642 106.141C192.619 105.944 192.6 105.758 192.584 105.583C192.6 105.758 192.619 105.944 192.642 106.141Z" fill="#F9D8EB"/>
<path d="M192.943 108.191C192.919 108.044 192.898 107.908 192.875 107.768C192.898 107.908 192.919 108.044 192.943 108.191Z" fill="#F9D8EB"/>
<path d="M193.241 109.852C193.21 109.69 193.183 109.537 193.154 109.381C193.183 109.538 193.21 109.691 193.241 109.852Z" fill="#F9D8EB"/>
<path d="M197.698 129.164C197.631 128.9 197.566 128.639 197.5 128.376C197.566 128.639 197.631 128.9 197.698 129.164Z" fill="#F9D8EB"/>
<path d="M193.819 112.733C193.78 112.549 193.744 112.373 193.707 112.194C193.744 112.373 193.78 112.549 193.819 112.733Z" fill="#F9D8EB"/>
<path d="M194.044 113.79C194 113.586 193.958 113.389 193.916 113.189C193.958 113.389 194 113.586 194.044 113.79Z" fill="#F9D8EB"/>
<path d="M193.082 108.992C193.057 108.847 193.034 108.712 193.01 108.573C193.034 108.712 193.057 108.847 193.082 108.992Z" fill="#F9D8EB"/>
<path d="M193.416 110.76C193.381 110.583 193.349 110.414 193.316 110.242C193.349 110.414 193.381 110.583 193.416 110.76Z" fill="#F9D8EB"/>
<path d="M199.173 134.964C199.104 134.696 199.036 134.428 198.967 134.161C199.036 134.428 199.104 134.696 199.173 134.964Z" fill="#F9D8EB"/>
<path d="M198.805 133.525C198.731 133.236 198.658 132.949 198.584 132.661C198.658 132.949 198.731 133.236 198.805 133.525Z" fill="#F9D8EB"/>
<path d="M200.718 140.893C200.643 140.609 200.569 140.324 200.494 140.04C200.569 140.324 200.643 140.609 200.718 140.893Z" fill="#F9D8EB"/>
<path d="M198.43 132.056C198.364 131.796 198.298 131.537 198.232 131.279C198.298 131.537 198.364 131.796 198.43 132.056Z" fill="#F9D8EB"/>
<path d="M200.329 139.405C200.255 139.123 200.181 138.84 200.107 138.557C200.181 138.84 200.255 139.122 200.329 139.405Z" fill="#F9D8EB"/>
<path d="M199.945 137.94C199.877 137.677 199.808 137.414 199.74 137.151C199.809 137.414 199.877 137.677 199.945 137.94Z" fill="#F9D8EB"/>
<path d="M199.55 136.422C199.491 136.19 199.431 135.959 199.371 135.727C199.431 135.959 199.491 136.19 199.55 136.422Z" fill="#F9D8EB"/>
<path d="M201.476 143.772C201.414 143.539 201.353 143.306 201.291 143.072C201.353 143.306 201.414 143.539 201.476 143.772Z" fill="#F9D8EB"/>
<path d="M201.104 142.363C201.028 142.073 200.951 141.782 200.875 141.491C200.951 141.782 201.028 142.073 201.104 142.363Z" fill="#F9D8EB"/>
<path d="M198.056 130.59C197.994 130.344 197.933 130.101 197.871 129.857C197.933 130.101 197.994 130.344 198.056 130.59Z" fill="#F9D8EB"/>
<path d="M218.64 132.798C203.715 107.063 192.584 105.583 192.584 105.583C192.6 105.758 192.619 105.944 192.642 106.14C192.651 106.214 192.663 106.296 192.672 106.372C192.688 106.5 192.703 106.625 192.722 106.761C192.736 106.859 192.752 106.965 192.767 107.067C192.785 107.193 192.803 107.315 192.823 107.447C192.839 107.55 192.858 107.662 192.875 107.769C192.897 107.909 192.919 108.045 192.943 108.191C192.964 108.314 192.987 108.446 193.01 108.573C193.034 108.713 193.057 108.848 193.082 108.992C193.105 109.118 193.13 109.252 193.154 109.383C193.183 109.539 193.211 109.692 193.241 109.853C193.265 109.98 193.291 110.113 193.316 110.243C193.349 110.415 193.381 110.584 193.416 110.761C193.446 110.911 193.478 111.068 193.509 111.222C193.542 111.388 193.574 111.551 193.609 111.721C193.641 111.875 193.674 112.037 193.707 112.194C193.744 112.373 193.78 112.549 193.819 112.733C193.85 112.882 193.884 113.038 193.916 113.19C193.958 113.389 194 113.586 194.044 113.79C194.078 113.947 194.114 114.111 194.149 114.271C194.193 114.475 194.237 114.677 194.283 114.885C194.319 115.05 194.357 115.219 194.394 115.387C194.442 115.6 194.489 115.813 194.538 116.031C194.574 116.188 194.61 116.35 194.646 116.509C194.699 116.741 194.751 116.972 194.805 117.209C194.844 117.38 194.885 117.557 194.925 117.731C194.978 117.96 195.03 118.188 195.084 118.42C195.128 118.61 195.174 118.804 195.219 118.997C195.271 119.218 195.322 119.438 195.375 119.662C195.423 119.867 195.473 120.077 195.522 120.284C195.574 120.505 195.626 120.725 195.679 120.948C195.724 121.136 195.77 121.327 195.816 121.517C195.875 121.766 195.935 122.014 195.995 122.265C196.045 122.472 196.096 122.681 196.146 122.89C196.202 123.119 196.257 123.348 196.313 123.58C196.369 123.807 196.425 124.037 196.481 124.267C196.537 124.496 196.593 124.725 196.65 124.956C196.7 125.16 196.751 125.367 196.802 125.572C196.865 125.829 196.928 126.085 196.993 126.344C197.044 126.551 197.096 126.76 197.148 126.969C197.212 127.227 197.276 127.485 197.341 127.745C197.394 127.954 197.447 128.166 197.5 128.376C197.565 128.638 197.631 128.901 197.697 129.164C197.755 129.394 197.813 129.625 197.872 129.856C197.933 130.1 197.994 130.343 198.057 130.588C198.115 130.817 198.173 131.048 198.232 131.278C198.298 131.537 198.363 131.796 198.43 132.056C198.481 132.257 198.532 132.459 198.584 132.661C198.658 132.948 198.731 133.236 198.805 133.524C198.859 133.736 198.914 133.948 198.968 134.16C199.037 134.428 199.106 134.695 199.175 134.963C199.24 135.217 199.306 135.473 199.372 135.728C199.432 135.959 199.492 136.19 199.552 136.421C199.615 136.664 199.678 136.907 199.741 137.15C199.809 137.414 199.878 137.677 199.946 137.94C199.999 138.146 200.053 138.351 200.107 138.558C200.181 138.84 200.254 139.123 200.328 139.405C200.384 139.616 200.439 139.827 200.494 140.039C200.569 140.323 200.643 140.608 200.718 140.892C200.77 141.092 200.823 141.291 200.875 141.491C200.952 141.781 201.028 142.072 201.105 142.363C201.167 142.6 201.23 142.836 201.292 143.072C201.354 143.305 201.415 143.538 201.477 143.771C201.495 143.84 201.513 143.909 201.531 143.977C201.531 143.978 201.532 143.978 201.532 143.978C202.912 149.178 218.64 132.798 218.64 132.798L218.64 132.798Z" fill="#6262CD"/>
<path d="M212.306 153.111L202.543 126.484C202.394 108.044 193.543 102.355 176.759 102.49L140.213 102.784C134.051 102.834 128.597 106.07 125.124 111.056L125.122 111.055L125.103 111.085C124.549 111.884 124.046 112.727 123.598 113.61L99.1172 154.67L99.7819 154.904L121.497 162.529L121.965 219.627H203.234L205.928 178.275L210.457 171.127C213.799 165.853 214.494 159.08 212.306 153.111L212.306 153.111Z" fill="#6D6BD4"/>
<path d="M136.433 167.621C136.412 167.621 136.391 167.619 136.369 167.614L129.233 166.143C129.063 166.108 128.954 165.942 128.989 165.772C129.024 165.602 129.19 165.489 129.361 165.529L136.198 166.938L141.981 143.003C142.022 142.834 142.191 142.735 142.36 142.771C142.529 142.812 142.633 142.981 142.593 143.15L136.739 167.38C136.704 167.524 136.575 167.621 136.433 167.621L136.433 167.621Z" fill="white"/>
<path d="M157.192 169.776L164.753 208.96C165.146 211.001 167.123 212.339 169.171 211.95L229.989 200.404C232.026 200.017 233.37 198.066 233.002 196.031L226.014 157.407C225.644 155.36 223.68 153.999 221.627 154.366L160.235 165.354C158.163 165.725 156.794 167.714 157.192 169.776H157.192Z" fill="#599AF2"/>
<path d="M171.496 209.115C169.765 209.115 168.215 207.889 167.877 206.133L161.13 171.171C160.942 170.198 161.149 169.212 161.71 168.395C162.273 167.578 163.121 167.032 164.099 166.856L218.876 157.053C220.869 156.697 222.795 158.026 223.155 160.019L229.39 194.482C229.747 196.458 228.429 198.372 226.451 198.747L172.186 209.05C171.954 209.094 171.724 209.115 171.496 209.115ZM219.528 157.623C219.35 157.623 219.169 157.639 218.987 157.671L164.21 167.474C163.399 167.619 162.696 168.073 162.229 168.75C161.763 169.428 161.592 170.245 161.748 171.052L168.495 206.014C168.812 207.662 170.417 208.752 172.068 208.433L226.333 198.131C227.974 197.82 229.067 196.233 228.771 194.593L222.536 160.131C222.27 158.659 220.978 157.623 219.528 157.623Z" fill="#EBF0F6"/>
<path d="M196.049 189.212C193.975 189.212 191.985 188.033 191.059 186.035C190.443 184.708 190.383 183.221 190.889 181.849C191.394 180.476 192.406 179.382 193.736 178.768C195.068 178.154 196.558 178.094 197.934 178.598C199.31 179.103 200.407 180.111 201.023 181.438C202.293 184.178 201.092 187.438 198.346 188.706C197.602 189.049 196.82 189.212 196.049 189.212ZM196.038 178.887C195.343 178.887 194.651 179.038 194.001 179.338C192.822 179.882 191.927 180.85 191.479 182.065C191.031 183.281 191.085 184.597 191.63 185.772C192.755 188.198 195.649 189.257 198.081 188.136C200.513 187.015 201.577 184.128 200.451 181.702C199.906 180.527 198.935 179.634 197.717 179.187C197.17 178.987 196.604 178.887 196.038 178.887V178.887Z" fill="#EBF0F6"/>
<path d="M189.912 193.452C189.546 192.772 188.855 192.377 188.131 192.339C188.147 192.251 188.156 192.195 188.156 192.195C188.194 192.144 188.226 192.095 188.262 192.045L189.158 191.625C190.219 191.128 190.862 189.971 190.605 188.831C190.42 188.01 189.869 187.43 189.196 187.134L189.202 187.131C190.705 186.471 191.074 184.51 189.912 183.351L189.863 183.303C189.101 182.543 187.95 182.327 186.963 182.759C186.864 182.758 186.768 182.759 186.673 182.763C187.575 182 187.859 180.65 187.157 179.563C186.494 178.536 185.132 178.207 184.01 178.697L179.549 180.649L160.22 185.475L159.252 180.459L158.478 180.922C155.521 182.69 152.954 185.038 150.933 187.824L149.255 190.135C149.255 190.135 130.566 184.342 118.593 180.659L126.33 164.223L99.7811 154.9L86.5913 182.661C85.7125 184.51 85.1652 186.421 84.9247 188.316C83.8722 193.115 85.0353 196.899 87.6695 199.898C89.0123 201.777 90.7961 203.323 92.9735 204.352C93.6382 204.667 94.3201 204.91 95.0109 205.091C107.837 211.153 128.99 211.74 138.261 213.201C142.653 213.894 146.386 214.295 149.467 214.518C157.491 215.098 165.483 213.049 172.234 208.684C178.269 204.781 184.154 200.157 185.388 198.734C185.549 198.55 185.698 198.354 185.842 198.153L189.078 196.416C190.116 195.858 190.508 194.555 189.949 193.519L189.912 193.451V193.452Z" fill="#F9D8EB"/>
<path d="M92.627 173.595L121.404 174.686L118.593 180.66L92.627 173.595Z" fill="#EF91C6"/>
<path d="M177.026 187.177C176.905 187.177 176.789 187.107 176.737 186.989C176.668 186.83 176.74 186.645 176.899 186.575L186.652 182.308C186.811 182.24 186.997 182.31 187.067 182.469C187.136 182.628 187.064 182.813 186.905 182.883L177.152 187.15C177.111 187.168 177.068 187.177 177.026 187.177H177.026Z" fill="#F6A8B3"/>
<path d="M178.424 191.917C178.303 191.917 178.187 191.847 178.136 191.73C178.066 191.571 178.138 191.386 178.298 191.316L188.051 187.05C188.21 186.982 188.396 187.052 188.465 187.211C188.534 187.37 188.463 187.554 188.303 187.624L178.55 191.891C178.509 191.909 178.466 191.917 178.424 191.917Z" fill="#F6A8B3"/>
<path d="M178.354 197.144C178.236 197.144 178.123 197.078 178.07 196.966C177.995 196.809 178.062 196.622 178.218 196.548L187.837 191.989C187.994 191.914 188.182 191.981 188.256 192.138C188.331 192.295 188.264 192.481 188.108 192.555L178.489 197.114C178.445 197.135 178.399 197.144 178.354 197.144Z" fill="#F6A8B3"/>
<path d="M194.438 48.336C194.344 47.3625 194.182 46.4123 193.97 45.4835C186.932 47.3478 175.067 49.5238 171.369 44.2971C168.346 46.2937 166.657 50.7202 165.718 55.161C165.572 55.8482 165.371 56.5089 165.118 57.1393C162.561 63.5237 154.718 65.9379 148.778 62.4485L148.77 62.4436L148.338 58.6074L147.849 58.6543C143.05 59.1155 139.502 63.4092 139.964 68.1957C140.427 72.9824 144.732 76.5212 149.531 76.0601L150.103 76.0051C150.375 78.0038 150.899 79.9113 151.647 81.6947C151.566 82.267 151.509 82.8468 151.509 83.4406V104.798C151.509 111.66 157.138 117.274 164.017 117.274C170.897 117.274 176.526 111.66 176.526 104.798V95.2082C183.335 94.0079 188.982 89.8327 192.232 84.1768C195.344 79.9075 196.969 74.5331 196.421 68.8656L194.438 48.3356V48.336Z" fill="#F9D8EB"/>
<path d="M176.222 93.3105C164.573 94.43 154.146 86.4617 152.008 75.2136C151.987 75.1041 150.084 75.9031 150.098 76.0068C150.574 79.5106 151.841 82.7282 153.697 85.4999C153.603 86.1647 153.546 86.8412 153.563 87.5332C153.721 94.3932 159.478 99.8768 166.356 99.7188C170.026 99.6348 173.294 97.9503 175.528 95.3637C182.781 94.4117 188.823 90.1062 192.231 84.1789C188.582 89.1848 182.884 92.6702 176.222 93.3107L176.222 93.3105Z" fill="#EF91C6"/>
<path d="M145.953 69.8869C145.849 69.8869 145.748 69.836 145.688 69.7426C145.594 69.5972 145.636 69.4029 145.783 69.3091L148.773 67.3936L145.532 63.7479C145.417 63.6182 145.429 63.4199 145.559 63.3051C145.688 63.1902 145.887 63.2006 146.003 63.3317L149.487 67.2513C149.548 67.3196 149.575 67.4115 149.563 67.5023C149.55 67.5929 149.499 67.6739 149.421 67.7235L146.122 69.8372C146.07 69.871 146.011 69.8869 145.953 69.8869H145.953Z" fill="#F6A8B3"/>
<path d="M177.967 84.5865C177.874 84.5865 177.783 84.5462 177.721 84.4682C177.613 84.3333 177.635 84.1361 177.77 84.0283C177.79 84.0114 179.832 82.4164 181.957 83.7711C182.103 83.8647 182.146 84.0584 182.052 84.2048C181.958 84.3509 181.763 84.3923 181.617 84.3001C179.879 83.1898 178.232 84.4639 178.163 84.5185C178.105 84.564 178.035 84.5865 177.967 84.5865Z" fill="#F6A8B3"/>
<path d="M180.288 80.1275L176.537 80.2136C173.064 80.2934 170.184 77.5497 170.104 74.0857L170.082 73.1389L181.684 72.8727L181.815 78.5329C181.835 79.3936 181.151 80.1076 180.288 80.1275H180.288Z" fill="white"/>
<path d="M173.062 63.2824L173.198 63.2692C173.722 63.2189 174.105 62.7553 174.054 62.2336L173.943 61.0851C173.893 60.5634 173.428 60.1813 172.905 60.2315L172.768 60.2446C172.245 60.295 171.862 60.7585 171.913 61.2802L172.024 62.4288C172.074 62.9506 172.539 63.3325 173.062 63.2824Z" fill="#3D469A"/>
<path d="M187.696 63.3807L187.833 63.366C188.355 63.3091 188.732 62.8407 188.675 62.3195L188.549 61.1724C188.492 60.6515 188.023 60.2753 187.5 60.3322L187.364 60.3469C186.841 60.4038 186.464 60.8722 186.521 61.3934L186.647 62.5406C186.704 63.0614 187.174 63.4376 187.696 63.3807Z" fill="#3D469A"/>
<path d="M181.349 71.7827C181.066 71.7827 180.808 71.5904 180.739 71.3033C180.657 70.9663 180.864 70.6271 181.202 70.5456L183.742 69.9312C183.941 69.883 184.063 69.683 184.015 69.4848L181.419 58.7231C181.338 58.3862 181.546 58.0473 181.883 57.9665C182.224 57.8852 182.562 58.093 182.643 58.4296L185.239 69.1913C185.448 70.0606 184.91 70.9395 184.038 71.1502L181.498 71.7648C181.448 71.777 181.398 71.7826 181.349 71.7826V71.7827Z" fill="#F6A8B3"/>
<path d="M173.305 69.9494C171.724 69.9494 170.183 69.4703 168.858 68.5508C167.145 67.3616 165.999 65.578 165.631 63.529C165.262 61.4801 165.716 59.4107 166.908 57.7021C168.101 55.9936 169.889 54.8504 171.943 54.4829C173.995 54.1144 176.072 54.568 177.785 55.7573C179.498 56.9465 180.644 58.7302 181.013 60.7793C181.381 62.828 180.927 64.8974 179.735 66.6062C178.543 68.3145 176.755 69.4578 174.7 69.8252C174.235 69.9084 173.768 69.9496 173.305 69.9496V69.9494ZM173.336 55.6136C172.947 55.6136 172.556 55.6482 172.165 55.7182C170.441 56.0265 168.941 56.9856 167.941 58.419C166.941 59.8523 166.56 61.5888 166.869 63.308C167.178 65.0271 168.14 66.5232 169.577 67.5211C171.014 68.5188 172.752 68.8981 174.479 68.5902C176.202 68.282 177.702 67.3226 178.703 65.8894C179.703 64.4556 180.084 62.7195 179.775 61.0005C179.465 59.2813 178.503 57.7851 177.067 56.7872C175.955 56.0156 174.662 55.6136 173.336 55.6136Z" fill="white"/>
<path d="M191.505 70.2386C189.924 70.2386 188.382 69.7595 187.057 68.8396C185.344 67.6508 184.198 65.8671 183.83 63.8181C183.461 61.769 183.915 59.6996 185.108 57.9913C186.3 56.2823 188.088 55.1393 190.142 54.7719C194.386 54.0133 198.452 56.8381 199.212 61.0681C199.581 63.1168 199.127 65.1866 197.934 66.8952C196.742 68.6037 194.954 69.7469 192.9 70.1144C192.434 70.1975 191.967 70.2388 191.505 70.2388V70.2386ZM191.524 55.9037C191.141 55.9037 190.754 55.9374 190.365 56.0069C188.64 56.3152 187.14 57.2743 186.14 58.7079C185.14 60.1413 184.759 61.8778 185.068 63.597C185.377 65.3162 186.339 66.8124 187.776 67.8101C189.214 68.8078 190.954 69.188 192.678 68.8791C194.401 68.571 195.901 67.6117 196.902 66.1783C197.902 64.7447 198.283 63.0084 197.974 61.289C197.406 58.1292 194.636 55.9035 191.524 55.9035L191.524 55.9037Z" fill="white"/>
<path d="M181.172 63.0675C180.847 63.0675 180.571 62.8186 180.545 62.4899C180.517 62.1445 180.776 61.8421 181.122 61.8146L183.925 61.5922C184.269 61.5668 184.575 61.8229 184.602 62.1682C184.63 62.5134 184.371 62.8158 184.025 62.8433L181.222 63.0657C181.205 63.067 181.188 63.0675 181.172 63.0675Z" fill="white"/>
<path d="M169.855 53.8152C170.325 53.8993 170.866 53.717 171.399 53.5706C171.932 53.4122 172.471 53.2662 172.944 53.1558C173.419 53.0448 173.967 52.9363 174.516 52.8421C175.058 52.7369 175.627 52.6598 176.005 52.3775C176.371 52.1107 176.421 51.5806 175.797 51.0888C175.207 50.6062 173.873 50.243 172.303 50.6059C170.737 50.976 169.724 51.8878 169.427 52.5776C169.107 53.2904 169.403 53.7396 169.855 53.815L169.855 53.8152Z" fill="#3D469A"/>
<path d="M193.015 52.7027C192.544 52.7798 192.006 52.5896 191.475 52.4356C190.944 52.2692 190.407 52.1153 189.936 51.998C189.463 51.88 188.916 51.7635 188.369 51.6612C187.829 51.5479 187.261 51.4625 186.888 51.1745C186.525 50.9026 186.483 50.3717 187.114 49.8893C187.712 49.4154 189.05 49.072 190.615 49.4581C192.175 49.8512 193.175 50.778 193.461 51.4723C193.771 52.1897 193.468 52.6344 193.015 52.703L193.015 52.7027Z" fill="#3D469A"/>
<path d="M171.284 64.0606C171.184 64.0606 171.086 64.0134 171.025 63.9255C170.926 63.7835 170.961 63.5882 171.104 63.4896C171.19 63.4299 173.242 62.0346 174.914 63.2027C175.057 63.3023 175.091 63.4979 174.991 63.6398C174.892 63.7812 174.695 63.8162 174.553 63.7166C173.244 62.8012 171.48 63.9931 171.462 64.0052C171.407 64.0426 171.345 64.0608 171.284 64.0608V64.0606Z" fill="#F6A8B3"/>
<path d="M186.284 64.3424C186.184 64.3424 186.086 64.2955 186.025 64.2076C185.926 64.0652 185.962 63.8701 186.104 63.771C186.191 63.7108 188.243 62.3153 189.915 63.4837C190.056 63.5833 190.092 63.7791 189.991 63.9208C189.892 64.0632 189.696 64.0962 189.553 63.9978C188.238 63.0781 186.481 64.2739 186.463 64.2863C186.408 64.3244 186.345 64.3425 186.284 64.3425L186.284 64.3424Z" fill="#F6A8B3"/>
<path d="M256.442 12.9822C239.779 12.9822 226.27 26.4556 226.27 43.0756C226.27 49.2978 228.164 55.0786 231.407 59.877C231.395 59.9671 231.209 60.8861 231.088 61.5042C230.524 63.8234 229.07 68.0749 225.584 71.1173C222.883 73.3864 230.913 75.1846 236.695 71.3763C237.876 70.6048 238.968 69.587 239.864 68.2709C239.871 68.2589 239.878 68.2475 239.886 68.2358C244.639 71.3536 250.328 73.1689 256.442 73.1689C273.105 73.1689 286.614 59.6957 286.614 43.0756C286.614 26.4556 273.105 12.9822 256.442 12.9822V12.9822Z" fill="#C4D8FF"/>
<path d="M241.611 30.4261H244.823C245.477 30.4261 246.007 30.9547 246.007 31.6068V35.4091C246.007 36.3604 247.071 36.8903 247.86 36.3561C247.867 36.3509 247.875 36.3459 247.883 36.3409C248.633 35.8358 249.566 35.5834 250.681 35.5834C252.385 35.5834 253.711 36.098 254.661 37.1272C255.61 38.1571 256.085 39.5748 256.085 41.3811V50.5145C256.085 51.1666 255.555 51.6953 254.901 51.6953H251.69C251.036 51.6953 250.506 51.1666 250.506 50.5145V43.1586C250.506 42.2846 250.304 41.6243 249.901 41.1774C249.496 40.7308 248.968 40.5071 248.314 40.5071C247.641 40.5071 247.088 40.7308 246.656 41.1774C246.223 41.6243 246.007 42.2844 246.007 43.1586V50.5145C246.007 51.1666 245.477 51.6953 244.823 51.6953H241.612C240.958 51.6953 240.428 51.1666 240.428 50.5145V31.6068C240.428 30.9547 240.958 30.4261 241.612 30.4261H241.611Z" fill="white"/>
<path d="M260.992 30.4261H262.716C263.845 30.4261 264.761 31.3392 264.761 32.4656C264.761 33.592 263.845 34.5053 262.716 34.5053H260.992C259.863 34.5053 258.947 33.592 258.947 32.4656C258.947 31.3392 259.863 30.4261 260.992 30.4261ZM261.109 35.9328H262.599C263.728 35.9328 264.643 36.8461 264.643 37.9725V49.6558C264.643 50.7822 263.728 51.6955 262.599 51.6955H261.109C259.979 51.6955 259.064 50.7822 259.064 49.6558V37.9725C259.064 36.8461 259.979 35.9328 261.109 35.9328Z" fill="white"/>
<path d="M267.799 33.6502V32.9914C267.799 32.0571 268.558 31.2999 269.495 31.2999H272.413C273.35 31.2999 274.109 32.0571 274.109 32.9914V33.6502C274.109 33.7341 274.103 33.818 274.09 33.901L272.631 43.611C272.507 44.4391 271.794 45.0519 270.954 45.0519C270.114 45.0519 269.401 44.4391 269.277 43.611L267.818 33.901C267.805 33.818 267.799 33.7343 267.799 33.6502H267.799ZM269.758 46.7415H272.15C273.087 46.7415 273.846 47.4988 273.846 48.4332V50.0033C273.846 50.9376 273.087 51.6949 272.15 51.6949H269.758C268.821 51.6949 268.062 50.9376 268.062 50.0033V48.4332C268.062 47.4988 268.821 46.7415 269.758 46.7415Z" fill="white"/>
<path d="M254.554 230.998H276.374C278.336 230.998 279.926 229.412 279.926 227.455V194.454C279.926 194.057 279.603 193.735 279.205 193.735H251.612C251.275 193.735 251.002 194.007 251.002 194.344V227.455C251.002 229.412 252.592 230.998 254.554 230.998Z" fill="#F28293"/>
<path d="M281.379 223.525H278.721V221.642H281.379C284.045 221.642 286.213 219.48 286.213 216.821V206.71C286.213 204.05 284.045 201.888 281.379 201.888H277.516V200.005H281.379C285.085 200.005 288.1 203.013 288.1 206.71V216.821C288.1 220.517 285.085 223.525 281.379 223.525Z" fill="#F28293"/>
<path d="M256.48 230.998H271.933C273.895 230.998 275.485 229.412 275.485 227.455V194.454C275.485 194.057 275.162 193.735 274.763 193.735H253.538C253.201 193.735 252.928 194.007 252.928 194.344V227.455C252.928 229.412 254.518 230.998 256.48 230.998H256.48Z" fill="#EF919C"/>
<path d="M256.48 230.998H265.463V193.735H253.538C253.201 193.735 252.928 194.007 252.928 194.344V227.455C252.928 229.412 254.518 230.998 256.48 230.998Z" fill="#F6A8B3"/>
<defs>
<clipPath id="clip0_1_754">
<rect width="375" height="219.7" fill="white"/>
</clipPath>
</defs>
</svg>
