<svg width="44" height="44" viewBox="0 0 44 44" fill="none" xmlns="http://www.w3.org/2000/svg">
<mask id="mask0_1_460" style="mask-type:alpha" maskUnits="userSpaceOnUse" x="0" y="0" width="44" height="44">
<rect x="0.0766602" y="0.0776672" width="43.8462" height="43.8462" fill="#C4C4C4"/>
</mask>
<g mask="url(#mask0_1_460)">
<path d="M41.4129 26.8643C40.9379 25.9666 40.1712 25.969 39.7009 26.8698L39.1188 27.9835C38.6478 28.8836 37.4484 29.6134 36.439 29.6134H35.0683C34.0581 29.6134 32.6427 30.1778 31.9065 30.8737L29.2595 33.3746L29.1586 24.6882C29.2259 23.1678 28.2917 22.6578 28.2917 22.6578L23.6652 20.5171L26.4202 14.9416L29.5725 16.8301C29.5725 16.8301 30.8384 17.6308 31.7593 16.0615L34.7889 10.8612C34.9218 10.5712 34.9602 10.2378 34.8749 9.90438C34.6801 9.14147 33.9086 8.67957 33.1489 8.87582C32.8148 8.96171 32.5386 9.16348 32.3508 9.42913L29.833 13.712L24.6965 10.6539C24.3092 10.4301 23.8358 10.3497 23.3663 10.4719L16.956 12.1302C16.5445 12.2366 16.2229 12.5227 16.0546 12.8837L12.9375 19.1615C12.7255 19.4791 12.6409 19.881 12.7435 20.283C12.9304 21.0199 13.6808 21.4668 14.4155 21.2769C14.8279 21.1705 15.1479 20.886 15.3153 20.5219L18.2047 14.6815L20.5723 14.0802L14.3373 26.4371L8.9386 27.8164C8.79467 27.8488 8.65386 27.9007 8.51616 27.9677C7.64917 28.4138 7.3151 29.4661 7.75792 30.3417C8.14518 31.1055 9.00586 31.4656 9.79535 31.2466L16.1829 29.5827C17.7048 29.2453 18.0904 28.3918 18.0904 28.3918L20.5926 23.5461L25.6884 26.4868L25.7369 33.593C25.7378 33.682 25.7581 33.7711 25.7714 33.8601L24.8223 33.5149C23.8725 33.1697 22.321 33.1351 21.3562 33.4361L19.2178 34.1061C18.2532 34.408 16.6985 34.3812 15.7448 34.047L14.1721 33.4952C13.2183 33.1611 11.8131 33.4141 11.0322 34.0588L9.06853 35.684C8.28763 36.3287 6.88635 36.5675 5.93886 36.2183L3.41794 35.2868C2.47045 34.936 1.32266 35.3821 0.853986 36.2838L0.264053 37.4204C-0.20462 38.3213 0.235088 39.0519 1.24444 39.0519H41.0092C42.0185 39.0519 42.9982 38.2439 43.1961 37.2462L43.851 33.9509C44.0481 32.9538 43.8244 31.4178 43.3486 30.5208L41.4129 26.8643Z" fill="white"/>
<path d="M26.7827 10.3539C28.2397 9.97789 29.1198 8.48117 28.7451 7.01363C28.3703 5.54288 26.8845 4.66013 25.4268 5.03688C23.9707 5.41446 23.092 6.90879 23.466 8.3779C23.8408 9.84709 25.3266 10.7314 26.7827 10.3539Z" fill="white"/>
</g>
</svg>
