<svg width="44" height="44" viewBox="0 0 44 44" fill="none" xmlns="http://www.w3.org/2000/svg">
<g clip-path="url(#clip0_1_468)">
<path d="M22.5707 2.89098C21.9205 1.78286 21.0391 1.17207 20.0875 1.17207C19.0834 1.17207 18.1689 1.86996 17.579 3.08606L0.509568 38.252C-0.0602554 39.4258 -0.0672714 40.5624 0.488762 41.45C1.04552 42.3383 2.07041 42.828 3.37594 42.828H40.7766C42.0946 42.828 43.0977 42.3445 43.6014 41.4655C44.1049 40.587 44.0147 39.4774 43.3484 38.3399L22.5707 2.89098ZM11.5864 30.0763L12.8826 32.1099L14.853 32.1051C15.5609 32.1051 15.5609 33.0283 14.853 33.0283H12.5719C12.4 33.032 12.2149 32.9473 12.0799 32.7337L11.3126 31.5315L9.73021 33.0991L11.1969 33.8719C11.8 34.161 11.7106 34.6901 11.7106 34.6901V38.0144C11.7106 38.3909 11.406 38.6977 11.0288 38.6977C10.6524 38.6977 10.3487 38.3901 10.3487 38.0144V35.3548L7.80542 33.9406C7.50237 33.7725 7.29568 33.4462 7.29568 33.0768C7.29568 32.8232 7.38979 32.5903 7.55019 32.4167L10.0479 29.9144C10.3556 29.5642 10.789 29.6204 10.789 29.6204C11.3119 29.6199 11.5864 30.0763 11.5864 30.0763ZM11.3396 28.9843C11.3396 28.3335 11.8702 27.8036 12.5209 27.8036C13.1726 27.8036 13.7024 28.3343 13.7024 28.9843C13.7024 29.6359 13.1726 30.1634 12.5209 30.1634C11.8702 30.1642 11.3403 29.6359 11.3396 28.9843ZM15.6542 34.2984C17.4294 34.2984 18.8721 35.7366 18.8721 37.517C18.8721 39.2968 17.4294 40.7374 15.6542 40.7374C13.8766 40.7374 12.4331 39.2984 12.4331 37.517C12.4338 35.7366 13.8767 34.2984 15.6542 34.2984ZM9.63078 37.5171C9.63078 39.2969 8.18944 40.7375 6.40893 40.7375C4.63526 40.7375 3.19167 39.2977 3.19167 37.5171C3.19167 35.738 4.63526 34.2985 6.40893 34.2985C8.18872 34.2984 9.63078 35.7366 9.63078 37.5171ZM9.37393 23.5231L10.3841 21.4417L20.9319 26.5637L31.1327 20.5495L32.3025 22.5453L22.1428 28.5364V41.2864H19.8293V28.5995L9.37393 23.5231ZM24.8439 11.2417C25.3243 11.2116 25.737 11.5664 25.7716 12.0437C25.8057 12.5219 25.4471 12.9367 24.9688 12.9714L21.0846 13.2521L20.6419 15.3357C20.6581 15.3496 20.8439 15.5161 20.9473 15.5994C21.0276 15.6643 21.1085 15.7313 21.1856 15.8007C20.7337 16.2812 20.4561 16.9243 20.4561 17.6345C20.4561 17.8612 20.4862 18.0795 20.5394 18.29L19.345 19.045C19.3303 19.0527 19.1784 19.0527 19.1599 19.0427L17.6292 18.0495C17.1673 17.7487 16.4354 17.7525 15.9766 18.0564L14.4798 19.0427C14.4751 19.0427 14.3741 19.0427 14.3618 19.0364L12.9707 18.0078C13.5691 17.5983 16.72 16.5626 18.7913 15.9064C18.7836 15.8215 18.7844 15.7344 18.803 15.6473L19.5247 12.2535C19.6057 11.8764 19.9257 11.5965 20.3113 11.5687L24.8439 11.2417ZM25.4116 17.6338C25.4116 17.8096 25.39 17.9793 25.3522 18.1436L23.9657 19.0427C23.9657 19.0427 23.9479 19.0473 23.9178 19.0473C23.8824 19.0473 23.856 19.0397 23.8491 19.0358L22.6162 18.1065C22.1635 17.7657 21.4339 17.7349 20.9527 18.0379L20.9057 18.068C20.8788 17.9269 20.8626 17.7819 20.8626 17.6338C20.8626 16.3776 21.8813 15.3597 23.1374 15.3597C24.3936 15.3597 25.4116 16.3784 25.4116 17.6338ZM14.1612 19.6959C14.2637 19.7722 14.4773 19.7776 14.5846 19.7074L16.0814 18.7195C16.467 18.4658 17.0492 18.4627 17.4363 18.7141L18.9693 19.7097C19.0866 19.7852 19.3263 19.7868 19.4451 19.7128L21.0383 18.7056C21.4354 18.455 22.0184 18.4797 22.3941 18.7619L23.6325 19.6943C23.7343 19.7714 23.947 19.7784 24.0543 19.709L25.5873 18.715C25.9907 18.4528 26.5736 18.4875 26.943 18.796L28.4275 20.0329C28.6003 20.1771 28.6234 20.4338 28.4791 20.6066C28.3982 20.7029 28.2825 20.7531 28.1652 20.7531C28.0735 20.7531 27.9809 20.723 27.9046 20.659L26.4202 19.4205C26.3261 19.3419 26.1332 19.3311 26.0307 19.3974L24.4977 20.3921C24.1013 20.6497 23.5183 20.6289 23.142 20.3443L21.9043 19.412C21.8017 19.3333 21.5843 19.3248 21.474 19.3943L19.8808 20.4006C19.4937 20.6443 18.9123 20.6412 18.5267 20.3921L16.9936 19.3974C16.8779 19.3226 16.6451 19.3234 16.5309 19.3997L15.0341 20.3859C14.64 20.6466 14.0563 20.6304 13.6769 20.3504L11.9688 19.0873C11.7876 18.9531 11.7498 18.6986 11.8831 18.5182C12.0165 18.337 12.2718 18.2984 12.453 18.4326L14.1612 19.6959ZM31.9486 35.9811C31.9486 35.9811 32.2486 36.2602 32.0774 36.8161L31.2762 40.3904C31.2129 40.6988 30.9375 40.9333 30.6099 40.9333C30.2351 40.9333 29.9289 40.6279 29.9289 40.2524C29.9289 40.1923 29.9352 40.1351 29.9512 40.0812L30.6099 37.15L28.9866 35.5715L27.5893 37.1308C27.5893 37.1308 27.3618 37.4076 26.7625 37.3876L23.9301 37.3929C23.6131 37.3969 23.3256 37.1825 23.2531 36.8608C23.1698 36.4945 23.3972 36.136 23.762 36.0534C23.8222 36.0404 23.8792 36.0372 23.9348 36.038L26.3716 36.045L29.976 31.8662L29.0336 31.8607L27.3972 33.7515C27.3009 33.8703 27.1536 33.9436 26.9885 33.9436C26.6948 33.9436 26.4594 33.7068 26.4594 33.4154C26.4594 33.2565 26.5282 33.1146 26.6368 33.0174L28.4012 30.9854C28.5 30.8698 28.6458 30.795 28.8099 30.795L31.3648 30.7934C31.5522 30.7934 31.7195 30.8698 31.8428 30.9894L33.4724 32.6172L34.8219 31.2701C34.9151 31.1891 35.0385 31.142 35.1719 31.142C35.4749 31.142 35.7194 31.3864 35.7194 31.6887C35.7194 31.8207 35.6748 31.9394 35.5976 32.0343L33.969 33.6737C33.4754 34.1664 33.0791 33.7486 33.0791 33.7486L32.0803 32.746L30.5197 34.5506L31.9486 35.9811ZM31.7951 29.8063C31.7951 29.1046 32.3657 28.5364 33.0674 28.5364C33.7684 28.5364 34.3383 29.1046 34.3383 29.8063C34.3383 30.5082 33.7692 31.0788 33.0674 31.0788C32.3658 31.0789 31.7951 30.5082 31.7951 29.8063Z" fill="white"/>
</g>
<defs>
<clipPath id="clip0_1_468">
<rect width="43.8462" height="43.8462" fill="white" transform="translate(0.0769043 0.0769234)"/>
</clipPath>
</defs>
</svg>
