<svg width="120" height="120" viewBox="0 0 120 120" fill="none" xmlns="http://www.w3.org/2000/svg">
<path fill-rule="evenodd" clip-rule="evenodd" d="M0.70063 119.544C0.244644 119.535 0.0060086 119.53 0.0060086 119.53C-0.303062 102.511 11.3504 87.4613 25.9443 84.9624C26.015 85.029 26.0856 85.0956 26.1561 85.1622C27.3654 85.0269 28.5946 84.9588 29.8408 84.9644C47.5817 85.0436 69.3298 85.041 87.0712 84.9625C105.516 84.9164 120.364 100.881 119.993 119.947C119.993 120.025 94.0399 120.001 65.8709 119.975C50.9221 119.962 35.3492 119.947 22.7 119.947C22.6999 119.936 22.6998 119.925 22.6996 119.913C11.442 119.767 3.08925 119.594 0.70063 119.544Z" fill="url(#paint0_linear_1_75)"/>
<path d="M95.6732 37.5379C95.7295 58.1474 79.3182 74.9537 59.1885 74.9673C39.0581 74.953 22.6468 58.1474 22.7038 37.5379C22.7861 16.9278 39.1975 0.0136525 59.1885 0C79.1795 0.0117022 95.5909 16.9278 95.6732 37.5379Z" fill="url(#paint1_linear_1_75)"/>
<path opacity="0.3" d="M68.1813 55.0057C48.345 54.9973 32.2406 38.2556 32.3409 17.6361C32.3497 15.6033 32.5204 13.6102 32.8288 11.6638C26.6083 18.4178 22.7318 27.5492 22.7038 37.5915C22.6483 58.1727 38.7956 74.9559 58.6014 74.9696C76.459 74.9618 91.331 61.3072 94.0518 43.552C87.5304 50.5955 78.3505 55.0051 68.1813 55.0057Z" fill="url(#paint2_linear_1_75)"/>
<defs>
<linearGradient id="paint0_linear_1_75" x1="59.9999" y1="84.9624" x2="59.9999" y2="120" gradientUnits="userSpaceOnUse">
<stop stop-color="#52A8ED"/>
<stop offset="1" stop-color="#8AD3F7"/>
</linearGradient>
<linearGradient id="paint1_linear_1_75" x1="54.3238" y1="14.1605" x2="85.4358" y2="58.3572" gradientUnits="userSpaceOnUse">
<stop stop-color="#52A8ED"/>
<stop offset="1" stop-color="#8AD3F7"/>
</linearGradient>
<linearGradient id="paint2_linear_1_75" x1="58.3777" y1="11.6638" x2="58.3777" y2="74.9696" gradientUnits="userSpaceOnUse">
<stop stop-color="white" stop-opacity="0.4"/>
<stop offset="1" stop-color="#3CAFFF"/>
</linearGradient>
</defs>
</svg>
