<svg width="44" height="44" viewBox="0 0 44 44" fill="none" xmlns="http://www.w3.org/2000/svg">
<g clip-path="url(#clip0_1_344)">
<path d="M21.0131 8.49666C23.3381 8.49666 25.223 6.61184 25.223 4.28679C25.223 1.96175 23.3381 0.0769234 21.0131 0.0769234C18.688 0.0769234 16.8032 1.96175 16.8032 4.28679C16.8032 6.61184 18.688 8.49666 21.0131 8.49666Z" fill="white"/>
<path d="M32.597 18.9137C29.1302 16.9069 26.2857 14.1961 23.8912 11.0071C22.3866 8.89123 18.4086 9.00169 16.7922 10.9406C14.3332 13.333 12.2468 15.7988 10.592 18.266C9.91549 19.2766 10.1844 20.644 11.1944 21.3205C11.571 21.573 11.9957 21.6937 12.4177 21.6937C13.1271 21.6937 13.8242 21.3514 14.2482 20.7174C14.9747 19.6354 15.7987 18.55 16.7112 17.4694C16.6763 19.7562 16.7908 23.8824 16.8485 25.7369C16.8677 26.3544 16.727 26.9581 16.4402 27.5063C14.1706 31.8404 12.7189 35.9411 11.2451 40.9578C10.8843 42.1825 11.5861 43.4676 12.8101 43.8278C13.0873 43.9094 13.3672 43.9369 13.6375 43.9163C14.5693 43.8449 15.4022 43.2103 15.6807 42.2621C17.0406 37.6365 18.3544 33.8911 20.4038 29.9255C20.5081 29.9296 20.6124 29.9296 20.718 29.9248C22.0264 33.8286 23.3355 37.7346 24.6459 41.6384C25.5975 44.4837 30.0125 43.0058 29.0582 40.1599C27.6263 35.8917 26.1965 31.6256 24.7694 27.3581C24.6864 27.1132 24.4854 26.154 24.4572 25.8412C24.2212 23.212 24.1355 20.5912 24.1608 17.9669C26.1697 19.8914 28.3975 21.5606 30.8722 22.9946C33.3401 24.4271 35.032 20.325 32.597 18.9137Z" fill="white"/>
</g>
<defs>
<clipPath id="clip0_1_344">
<rect width="43.8462" height="43.8462" fill="white" transform="translate(0.0769043 0.0769234)"/>
</clipPath>
</defs>
</svg>
