<svg width="44" height="44" viewBox="0 0 44 44" fill="none" xmlns="http://www.w3.org/2000/svg">
<g clip-path="url(#clip0_1_475)">
<path d="M0.0769043 12.9225C0.0769043 14.3387 1.22975 15.4916 2.64601 15.4916H16.8718C17.1854 27.3135 25.3431 35.4393 36.7171 38.6883C38.1236 39.0836 39.5082 38.2346 39.8834 36.9245C40.2777 35.5509 39.4801 34.134 38.1209 33.7457C34.9108 32.8287 31.8926 31.0684 29.3937 28.8179C28.3613 27.8871 27.7441 26.5963 27.7002 25.2766C27.6689 24.3194 27.4644 22.942 26.6741 21.8105C26.2275 21.172 25.6016 20.6188 24.815 20.1672C22.3707 18.7568 22 16.7135 22 13.487V12.9225C22 11.5062 20.8471 10.3534 19.4309 10.3534H2.64601C1.22975 10.3534 0.0769043 11.5062 0.0769043 12.9225Z" fill="white"/>
<path d="M18.1463 7.78426C20.2746 7.78426 21.9999 6.05891 21.9999 3.93059C21.9999 1.80227 20.2746 0.0769234 18.1463 0.0769234C16.0179 0.0769234 14.2926 1.80227 14.2926 3.93059C14.2926 6.05891 16.0179 7.78426 18.1463 7.78426Z" fill="white"/>
<path d="M42.6385 41.354H1.36146C0.651443 41.354 0.0769043 41.9285 0.0769043 42.6385C0.0769043 43.3485 0.651443 43.9231 1.36146 43.9231H42.6385C43.3485 43.9231 43.9231 43.3485 43.9231 42.6385C43.9231 41.9285 43.3485 41.354 42.6385 41.354Z" fill="white"/>
<path d="M24.6626 15.4916H36.13C37.549 15.4916 38.6992 14.3412 38.6992 12.9225C38.6992 11.5036 37.549 10.3534 36.13 10.3534H23.8545C24.297 11.1121 24.569 11.9824 24.569 12.9225V13.487C24.569 14.3235 24.6 14.9699 24.6626 15.4916Z" fill="white"/>
<path d="M10.5757 26.1246C9.69881 26.5612 9.15442 27.4418 9.15442 28.4228V36.2157C9.15442 37.632 10.3073 38.7849 11.7235 38.7849C13.1398 38.7849 14.2926 37.632 14.2926 36.2157V30.0109L17.937 28.189C17.0466 26.7229 16.3102 25.1721 15.7405 23.5423L10.5757 26.1246Z" fill="white"/>
</g>
<defs>
<clipPath id="clip0_1_475">
<rect width="43.8462" height="43.8462" fill="white" transform="translate(0.0769043 0.0769234)"/>
</clipPath>
</defs>
</svg>
